<svg version="1.1" viewBox="0.0 0.0 600.0 371.0" fill="none" stroke="none" stroke-linecap="square" stroke-miterlimit="10" width="600" height="371" xmlns:xlink="http://www.w3.org/1999/xlink" xmlns="http://www.w3.org/2000/svg"><path fill="#ffffff" d="M0 0L600.0 0L600.0 371.0L0 371.0L0 0Z" fill-rule="nonzero"/><path stroke="#333333" stroke-width="1.0" stroke-linecap="butt" d="M77.5 286.5L581.5 286.5" fill-rule="nonzero"/><path stroke="#cccccc" stroke-width="1.0" stroke-linecap="butt" d="M77.5 241.5L581.5 241.5" fill-rule="nonzero"/><path stroke="#cccccc" stroke-width="1.0" stroke-linecap="butt" d="M77.5 196.5L581.5 196.5" fill-rule="nonzero"/><path stroke="#cccccc" stroke-width="1.0" stroke-linecap="butt" d="M77.5 151.5L581.5 151.5" fill-rule="nonzero"/><path stroke="#cccccc" stroke-width="1.0" stroke-linecap="butt" d="M77.5 106.5L581.5 106.5" fill-rule="nonzero"/><path stroke="#cccccc" stroke-width="1.0" stroke-linecap="butt" d="M77.5 61.5L581.5 61.5" fill-rule="nonzero"/><clipPath id="id_0"><path d="M77.55 61.916668L581.45 61.916668L581.45 286.45L77.55 286.45L77.55 61.916668Z" clip-rule="nonzero"/></clipPath><path stroke="#4285f4" stroke-width="2.0" stroke-linecap="butt" clip-path="url(#id_0)" d="M113.542854 151.73L185.52856 61.916668L257.51428 196.63667L329.5 106.82333L401.48572 151.73L473.47144 61.916668L545.45715 61.916668" fill-rule="nonzero"/><path fill="#000000" fill-opacity="0.0" clip-path="url(#id_0)" d="M116.542854 151.73C116.542854 153.38686 115.199715 154.73 113.542854 154.73C111.886 154.73 110.542854 153.38686 110.542854 151.73C110.542854 150.07315 111.886 148.73 113.542854 148.73C115.199715 148.73 116.542854 150.07315 116.542854 151.73Z" fill-rule="nonzero"/><path fill="#000000" fill-opacity="0.0" clip-path="url(#id_0)" d="M188.52856 61.916668C188.52856 63.57352 187.18542 64.916664 185.52856 64.916664C183.87172 64.916664 182.52856 63.57352 182.52856 61.916668C182.52856 60.25981 183.87172 58.916668 185.52856 58.916668C187.18542 58.916668 188.52856 60.25981 188.52856 61.916668Z" fill-rule="nonzero"/><path fill="#000000" fill-opacity="0.0" clip-path="url(#id_0)" d="M260.51428 196.63667C260.51428 198.29352 259.17114 199.63667 257.51428 199.63667C255.85744 199.63667 254.51428 198.29352 254.51428 196.63667C254.51428 194.97981 255.85744 193.63667 257.51428 193.63667C259.17114 193.63667 260.51428 194.97981 260.51428 196.63667Z" fill-rule="nonzero"/><path fill="#000000" fill-opacity="0.0" clip-path="url(#id_0)" d="M332.5 106.82333C332.5 108.48019 331.15686 109.82333 329.5 109.82333C327.84314 109.82333 326.5 108.48019 326.5 106.82333C326.5 105.16648 327.84314 103.82333 329.5 103.82333C331.15686 103.82333 332.5 105.16648 332.5 106.82333Z" fill-rule="nonzero"/><path fill="#000000" fill-opacity="0.0" clip-path="url(#id_0)" d="M404.48572 151.73C404.48572 153.38686 403.14258 154.73 401.48572 154.73C399.82886 154.73 398.48572 153.38686 398.48572 151.73C398.48572 150.07315 399.82886 148.73 401.48572 148.73C403.14258 148.73 404.48572 150.07315 404.48572 151.73Z" fill-rule="nonzero"/><path fill="#000000" fill-opacity="0.0" clip-path="url(#id_0)" d="M476.47144 61.916668C476.47144 63.57352 475.1283 64.916664 473.47144 64.916664C471.81458 64.916664 470.47144 63.57352 470.47144 61.916668C470.47144 60.25981 471.81458 58.916668 473.47144 58.916668C475.1283 58.916668 476.47144 60.25981 476.47144 61.916668Z" fill-rule="nonzero"/><path fill="#000000" fill-opacity="0.0" clip-path="url(#id_0)" d="M548.45715 61.916668C548.45715 63.57352 547.114 64.916664 545.45715 64.916664C543.8003 64.916664 542.45715 63.57352 542.45715 61.916668C542.45715 60.25981 543.8003 58.916668 545.45715 58.916668C547.114 58.916668 548.45715 60.25981 548.45715 61.916668Z" fill-rule="nonzero"/><path fill="#000000" d="M301.10938 349.45L301.10938 341.8719L298.28125 341.8719L298.28125 340.85626L305.09375 340.85626L305.09375 341.8719L302.25 341.8719L302.25 349.45L301.10938 349.45ZM305.79688 342.075L305.79688 340.85626L306.85938 340.85626L306.85938 342.075L305.79688 342.075ZM305.79688 349.45L305.79688 343.23126L306.85938 343.23126L306.85938 349.45L305.79688 349.45ZM308.79688 349.45L308.79688 343.23126L309.73438 343.23126L309.73438 344.10626Q310.03125 343.6375 310.51562 343.3719Q311.0 343.09064 311.625 343.09064Q312.3125 343.09064 312.75 343.3719Q313.20312 343.65314 313.375 344.16876Q314.125 343.09064 315.29688 343.09064Q316.23438 343.09064 316.71875 343.60626Q317.21875 344.10626 317.21875 345.1844L317.21875 349.45L316.17188 349.45L316.17188 345.52814Q316.17188 344.90314 316.0625 344.6219Q315.96875 344.34064 315.70312 344.16876Q315.4375 343.9969 315.0625 343.9969Q314.40625 343.9969 313.96875 344.4344Q313.54688 344.8719 313.54688 345.84064L313.54688 349.45L312.48438 349.45L312.48438 345.40314Q312.48438 344.7 312.21875 344.35626Q311.96875 343.9969 311.39062 343.9969Q310.9375 343.9969 310.5625 344.23126Q310.1875 344.46564 310.01562 344.91876Q309.84375 345.3719 309.84375 346.21564L309.84375 349.45L308.79688 349.45ZM324.04688 347.45L325.14062 347.575Q324.89062 348.52814 324.1875 349.0594Q323.48438 349.59064 322.40625 349.59064Q321.04688 349.59064 320.23438 348.7469Q319.4375 347.90314 319.4375 346.3875Q319.4375 344.825 320.25 343.96564Q321.0625 343.09064 322.34375 343.09064Q323.59375 343.09064 324.375 343.9344Q325.17188 344.77814 325.17188 346.325Q325.17188 346.41876 325.17188 346.60626L320.53125 346.60626Q320.59375 347.6375 321.10938 348.1844Q321.625 348.71564 322.40625 348.71564Q322.98438 348.71564 323.39062 348.41876Q323.8125 348.10626 324.04688 347.45ZM320.59375 345.7469L324.0625 345.7469Q324.0 344.95 323.67188 344.5594Q323.15625 343.95 322.35938 343.95Q321.625 343.95 321.125 344.4344Q320.64062 344.91876 320.59375 345.7469ZM326.375 347.59064L327.40625 347.4344Q327.5 348.0594 327.89062 348.3875Q328.29688 348.71564 329.03125 348.71564Q329.75 348.71564 330.09375 348.4344Q330.45312 348.1375 330.45312 347.73126Q330.45312 347.3719 330.14062 347.16876Q329.92188 347.02814 329.0625 346.8094Q327.90625 346.5125 327.45312 346.3094Q327.01562 346.09064 326.78125 345.71564Q326.54688 345.34064 326.54688 344.8719Q326.54688 344.46564 326.73438 344.10626Q326.92188 343.7469 327.25 343.5125Q327.5 343.34064 327.92188 343.21564Q328.34375 343.09064 328.84375 343.09064Q329.5625 343.09064 330.10938 343.3094Q330.67188 343.5125 330.9375 343.8719Q331.20312 344.23126 331.29688 344.825L330.26562 344.96564Q330.20312 344.4969 329.85938 344.23126Q329.53125 343.95 328.90625 343.95Q328.1875 343.95 327.875 344.2Q327.5625 344.4344 327.5625 344.7625Q327.5625 344.96564 327.6875 345.1219Q327.82812 345.29376 328.09375 345.40314Q328.25 345.46564 329.03125 345.66876Q330.15625 345.98126 330.59375 346.16876Q331.03125 346.35626 331.28125 346.71564Q331.53125 347.075 331.53125 347.6219Q331.53125 348.15314 331.21875 348.6219Q330.92188 349.075 330.34375 349.34064Q329.76562 349.59064 329.03125 349.59064Q327.8125 349.59064 327.17188 349.09064Q326.54688 348.575 326.375 347.59064ZM336.09375 348.5125L336.25 349.4344Q335.79688 349.52814 335.45312 349.52814Q334.875 349.52814 334.5625 349.35626Q334.25 349.16876 334.10938 348.8719Q333.98438 348.575 333.98438 347.6219L333.98438 344.04376L333.21875 344.04376L333.21875 343.23126L333.98438 343.23126L333.98438 341.6844L335.03125 341.0594L335.03125 343.23126L336.09375 343.23126L336.09375 344.04376L335.03125 344.04376L335.03125 347.6844Q335.03125 348.1375 335.07812 348.2625Q335.14062 348.3875 335.26562 348.46564Q335.39062 348.54376 335.625 348.54376Q335.8125 348.54376 336.09375 348.5125ZM340.85938 348.6844Q340.26562 349.1844 339.71875 349.3875Q339.1875 349.59064 338.5625 349.59064Q337.53125 349.59064 336.98438 349.09064Q336.4375 348.59064 336.4375 347.8094Q336.4375 347.35626 336.64062 346.98126Q336.84375 346.59064 337.1875 346.3719Q337.53125 346.1375 337.95312 346.02814Q338.25 345.9344 338.89062 345.85626Q340.15625 345.71564 340.76562 345.4969Q340.76562 345.27814 340.76562 345.23126Q340.76562 344.575 340.46875 344.3094Q340.0625 343.96564 339.26562 343.96564Q338.53125 343.96564 338.17188 344.23126Q337.8125 344.48126 337.64062 345.1375L336.60938 344.9969Q336.75 344.34064 337.07812 343.9344Q337.40625 343.52814 338.01562 343.3094Q338.625 343.09064 339.42188 343.09064Q340.21875 343.09064 340.71875 343.27814Q341.21875 343.46564 341.45312 343.7469Q341.6875 344.02814 341.78125 344.46564Q341.82812 344.73126 341.82812 345.4344L341.82812 346.84064Q341.82812 348.3094 341.89062 348.7Q341.96875 349.09064 342.17188 349.45L341.0625 349.45Q340.90625 349.1219 340.85938 348.6844ZM340.76562 346.325Q340.1875 346.5594 339.04688 346.73126Q338.39062 346.825 338.125 346.95Q337.85938 347.0594 337.70312 347.27814Q337.5625 347.4969 337.5625 347.77814Q337.5625 348.2 337.875 348.48126Q338.20312 348.7625 338.8125 348.7625Q339.42188 348.7625 339.89062 348.4969Q340.375 348.23126 340.59375 347.7625Q340.76562 347.40314 340.76562 346.71564L340.76562 346.325ZM343.79688 349.45L343.79688 343.23126L344.73438 343.23126L344.73438 344.10626Q345.03125 343.6375 345.51562 343.3719Q346.0 343.09064 346.625 343.09064Q347.3125 343.09064 347.75 343.3719Q348.20312 343.65314 348.375 344.16876Q349.125 343.09064 350.29688 343.09064Q351.23438 343.09064 351.71875 343.60626Q352.21875 344.10626 352.21875 345.1844L352.21875 349.45L351.17188 349.45L351.17188 345.52814Q351.17188 344.90314 351.0625 344.6219Q350.96875 344.34064 350.70312 344.16876Q350.4375 343.9969 350.0625 343.9969Q349.40625 343.9969 348.96875 344.4344Q348.54688 344.8719 348.54688 345.84064L348.54688 349.45L347.48438 349.45L347.48438 345.40314Q347.48438 344.7 347.21875 344.35626Q346.96875 343.9969 346.39062 343.9969Q345.9375 343.9969 345.5625 344.23126Q345.1875 344.46564 345.01562 344.91876Q344.84375 345.3719 344.84375 346.21564L344.84375 349.45L343.79688 349.45ZM354.79688 351.84064L354.79688 343.23126L355.75 343.23126L355.75 344.02814Q356.09375 343.5594 356.51562 343.325Q356.95312 343.09064 357.5625 343.09064Q358.35938 343.09064 358.96875 343.4969Q359.57812 343.90314 359.875 344.65314Q360.1875 345.40314 360.1875 346.29376Q360.1875 347.2469 359.84375 348.0125Q359.51562 348.77814 358.85938 349.1844Q358.20312 349.59064 357.48438 349.59064Q356.95312 349.59064 356.53125 349.3719Q356.10938 349.1375 355.84375 348.8094L355.84375 351.84064L354.79688 351.84064ZM355.75 346.3719Q355.75 347.575 356.23438 348.15314Q356.71875 348.71564 357.40625 348.71564Q358.10938 348.71564 358.60938 348.1219Q359.10938 347.52814 359.10938 346.27814Q359.10938 345.09064 358.625 344.5125Q358.14062 343.91876 357.45312 343.91876Q356.78125 343.91876 356.26562 344.54376Q355.75 345.16876 355.75 346.3719Z" fill-rule="nonzero"/><path fill="#000000" d="M20.956263 189.12083L20.956263 187.98021L25.925013 187.98021Q27.221888 187.98021 27.987513 188.27708Q28.737513 188.57396 29.221888 189.33958Q29.690638 190.10521 29.690638 191.33958Q29.690638 192.54271 29.284388 193.32396Q28.862513 194.08958 28.081263 194.41771Q27.284388 194.74583 25.925013 194.74583L20.956263 194.74583L20.956263 193.60521L25.909388 193.60521Q27.034388 193.60521 27.565638 193.40208Q28.096888 193.18333 28.393763 192.68333Q28.675013 192.16771 28.675013 191.43333Q28.675013 190.18333 28.112513 189.65208Q27.534388 189.12083 25.909388 189.12083L20.956263 189.12083ZM29.550013 183.30833L20.956263 186.63646L20.956263 185.40208L27.206263 183.16771Q27.956263 182.90208 28.612513 182.71458Q27.909388 182.51146 27.206263 182.24583L20.956263 179.93333L20.956263 178.77708L29.550013 182.13646L29.550013 183.30833Z" fill-rule="nonzero"/><path fill="#000000" d="M65.05 286.21564Q65.05 284.6844 65.3625 283.7625Q65.675 282.825 66.28438 282.325Q66.90938 281.825 67.84688 281.825Q68.53438 281.825 69.05 282.10626Q69.58125 282.3875 69.925 282.91876Q70.26875 283.4344 70.45625 284.1844Q70.64375 284.9344 70.64375 286.21564Q70.64375 287.73126 70.33125 288.65314Q70.03438 289.575 69.40938 290.09064Q68.8 290.59064 67.84688 290.59064Q66.6125 290.59064 65.89375 289.7Q65.05 288.6375 65.05 286.21564ZM66.12813 286.21564Q66.12813 288.325 66.62813 289.02814Q67.12813 289.73126 67.84688 289.73126Q68.58125 289.73126 69.06563 289.02814Q69.56563 288.325 69.56563 286.21564Q69.56563 284.09064 69.06563 283.40314Q68.58125 282.7 67.83125 282.7Q67.1125 282.7 66.675 283.3094Q66.12813 284.09064 66.12813 286.21564Z" fill-rule="nonzero"/><path fill="#000000" d="M69.01875 245.54333L67.97188 245.54333L67.97188 238.82458Q67.58125 239.18396 66.95625 239.55896Q66.34688 239.91833 65.8625 240.09021L65.8625 239.07458Q66.7375 238.65271 67.39375 238.07458Q68.06563 237.48083 68.34688 236.91833L69.01875 236.91833L69.01875 245.54333Z" fill-rule="nonzero"/><path fill="#000000" d="M70.59688 199.62105L70.59688 200.63667L64.90938 200.63667Q64.90938 200.26167 65.03438 199.9023Q65.25313 199.32417 65.72188 198.76167Q66.20625 198.19917 67.1125 197.4648Q68.51875 196.30855 69.00313 195.63667Q69.50313 194.9648 69.50313 194.37105Q69.50313 193.74605 69.05 193.32417Q68.59688 192.88667 67.87813 192.88667Q67.1125 192.88667 66.65938 193.3398Q66.20625 193.79292 66.19063 194.60542L65.1125 194.49605Q65.22188 193.2773 65.94063 192.6523Q66.675 192.01167 67.90938 192.01167Q69.14375 192.01167 69.8625 192.69917Q70.58125 193.38667 70.58125 194.4023Q70.58125 194.91792 70.3625 195.41792Q70.15938 195.9023 69.65938 196.4648Q69.175 197.01167 68.05 197.9648Q67.09688 198.76167 66.81563 199.05855Q66.55 199.3398 66.37813 199.62105L70.59688 199.62105Z" fill-rule="nonzero"/><path fill="#000000" d="M65.05 153.46437L66.1125 153.32375Q66.28438 154.21437 66.72188 154.62062Q67.15938 155.01125 67.78438 155.01125Q68.53438 155.01125 69.05 154.49562Q69.56563 153.98 69.56563 153.21437Q69.56563 152.49562 69.08125 152.02687Q68.6125 151.5425 67.87813 151.5425Q67.58125 151.5425 67.12813 151.6675L67.25313 150.73Q67.3625 150.74562 67.425 150.74562Q68.09688 150.74562 68.62813 150.40187Q69.175 150.0425 69.175 149.30812Q69.175 148.73 68.78438 148.355Q68.39375 147.96437 67.76875 147.96437Q67.15938 147.96437 66.7375 148.355Q66.33125 148.74562 66.22188 149.51125L65.15938 149.32375Q65.34688 148.27687 66.03438 147.69875Q66.72188 147.105 67.7375 147.105Q68.44063 147.105 69.03438 147.4175Q69.62813 147.71437 69.94063 148.23Q70.25313 148.74562 70.25313 149.33937Q70.25313 149.88625 69.95625 150.355Q69.65938 150.80812 69.08125 151.07375Q69.83125 151.24562 70.25313 151.80812Q70.675 152.355 70.675 153.19875Q70.675 154.32375 69.84688 155.105Q69.03438 155.88625 67.78438 155.88625Q66.65938 155.88625 65.90938 155.21437Q65.15938 154.52687 65.05 153.46437Z" fill-rule="nonzero"/><path fill="#000000" d="M68.425 110.82333L68.425 108.76083L64.70625 108.76083L64.70625 107.79208L68.62813 102.22958L69.4875 102.22958L69.4875 107.79208L70.64375 107.79208L70.64375 108.76083L69.4875 108.76083L69.4875 110.82333L68.425 110.82333ZM68.425 107.79208L68.425 103.93271L65.7375 107.79208L68.425 107.79208Z" fill-rule="nonzero"/><path fill="#000000" d="M65.05 63.666664L66.15938 63.572914Q66.28438 64.385414 66.72188 64.791664Q67.175 65.197914 67.81563 65.197914Q68.56563 65.197914 69.09688 64.61979Q69.62813 64.041664 69.62813 63.104164Q69.62813 62.197914 69.1125 61.68229Q68.6125 61.15104 67.78438 61.15104Q67.28438 61.15104 66.8625 61.385414Q66.45625 61.61979 66.22188 61.979164L65.2375 61.854164L66.06563 57.447914L70.34688 57.447914L70.34688 58.447914L66.90938 58.447914L66.45625 60.760414Q67.22188 60.21354 68.06563 60.21354Q69.19063 60.21354 69.95625 60.99479Q70.7375 61.77604 70.7375 63.010414Q70.7375 64.166664 70.06563 65.02604Q69.2375 66.05729 67.81563 66.05729Q66.64375 66.05729 65.89375 65.40104Q65.15938 64.74479 65.05 63.666664Z" fill-rule="nonzero"/><path fill="#000000" d="M86.699104 301.46564L87.71473 301.3719Q87.83973 302.09064 88.199104 302.41876Q88.574104 302.73126 89.136604 302.73126Q89.62098 302.73126 89.980354 302.5125Q90.355354 302.27814 90.58973 301.91876Q90.824104 301.54376 90.980354 300.91876Q91.136604 300.27814 91.136604 299.6219Q91.136604 299.54376 91.136604 299.40314Q90.824104 299.90314 90.27723 300.23126Q89.730354 300.54376 89.08973 300.54376Q88.011604 300.54376 87.27723 299.77814Q86.542854 298.9969 86.542854 297.73126Q86.542854 296.41876 87.30848 295.6219Q88.08973 294.825 89.24598 294.825Q90.074104 294.825 90.761604 295.27814Q91.46473 295.73126 91.824104 296.575Q92.18348 297.40314 92.18348 298.98126Q92.18348 300.6219 91.824104 301.60626Q91.480354 302.575 90.761604 303.09064Q90.05848 303.59064 89.12098 303.59064Q88.105354 303.59064 87.46473 303.04376Q86.824104 302.48126 86.699104 301.46564ZM91.011604 297.66876Q91.011604 296.7625 90.52723 296.23126Q90.05848 295.7 89.37098 295.7Q88.667854 295.7 88.136604 296.27814Q87.62098 296.84064 87.62098 297.7625Q87.62098 298.575 88.12098 299.09064Q88.62098 299.60626 89.33973 299.60626Q90.074104 299.60626 90.542854 299.09064Q91.011604 298.575 91.011604 297.66876ZM93.042854 303.59064L95.52723 294.71564L96.37098 294.71564L93.886604 303.59064L93.042854 303.59064ZM102.08973 302.4344L102.08973 303.45L96.40223 303.45Q96.40223 303.075 96.52723 302.71564Q96.74598 302.1375 97.21473 301.575Q97.699104 301.0125 98.605354 300.27814Q100.011604 299.1219 100.49598 298.45Q100.99598 297.77814 100.99598 297.1844Q100.99598 296.5594 100.542854 296.1375Q100.08973 295.7 99.37098 295.7Q98.605354 295.7 98.15223 296.15314Q97.699104 296.60626 97.68348 297.41876L96.605354 297.3094Q96.71473 296.09064 97.43348 295.46564Q98.167854 294.825 99.40223 294.825Q100.636604 294.825 101.355354 295.5125Q102.074104 296.2 102.074104 297.21564Q102.074104 297.73126 101.855354 298.23126Q101.65223 298.71564 101.15223 299.27814Q100.667854 299.825 99.542854 300.77814Q98.58973 301.575 98.30848 301.8719Q98.042854 302.15314 97.87098 302.4344L102.08973 302.4344ZM106.917854 303.45L106.917854 301.3875L103.199104 301.3875L103.199104 300.41876L107.12098 294.85626L107.980354 294.85626L107.980354 300.41876L109.136604 300.41876L109.136604 301.3875L107.980354 301.3875L107.980354 303.45L106.917854 303.45ZM106.917854 300.41876L106.917854 296.5594L104.230354 300.41876L106.917854 300.41876ZM110.042854 303.59064L112.52723 294.71564L113.37098 294.71564L110.886604 303.59064L110.042854 303.59064ZM119.08973 302.4344L119.08973 303.45L113.40223 303.45Q113.40223 303.075 113.52723 302.71564Q113.74598 302.1375 114.21473 301.575Q114.699104 301.0125 115.605354 300.27814Q117.011604 299.1219 117.49598 298.45Q117.99598 297.77814 117.99598 297.1844Q117.99598 296.5594 117.542854 296.1375Q117.08973 295.7 116.37098 295.7Q115.605354 295.7 115.15223 296.15314Q114.699104 296.60626 114.68348 297.41876L113.605354 297.3094Q113.71473 296.09064 114.43348 295.46564Q115.167854 294.825 116.40223 294.825Q117.636604 294.825 118.355354 295.5125Q119.074104 296.2 119.074104 297.21564Q119.074104 297.73126 118.855354 298.23126Q118.65223 298.71564 118.15223 299.27814Q117.667854 299.825 116.542854 300.77814Q115.58973 301.575 115.30848 301.8719Q115.042854 302.15314 114.87098 302.4344L119.08973 302.4344ZM120.542854 299.21564Q120.542854 297.6844 120.855354 296.7625Q121.167854 295.825 121.77723 295.325Q122.40223 294.825 123.33973 294.825Q124.02723 294.825 124.542854 295.10626Q125.074104 295.3875 125.417854 295.91876Q125.761604 296.4344 125.949104 297.1844Q126.136604 297.9344 126.136604 299.21564Q126.136604 300.73126 125.824104 301.65314Q125.52723 302.575 124.90223 303.09064Q124.292854 303.59064 123.33973 303.59064Q122.105354 303.59064 121.386604 302.7Q120.542854 301.6375 120.542854 299.21564ZM121.62098 299.21564Q121.62098 301.325 122.12098 302.02814Q122.62098 302.73126 123.33973 302.73126Q124.074104 302.73126 124.55848 302.02814Q125.05848 301.325 125.05848 299.21564Q125.05848 297.09064 124.55848 296.40314Q124.074104 295.7 123.324104 295.7Q122.605354 295.7 122.167854 296.3094Q121.62098 297.09064 121.62098 299.21564ZM133.08972 302.4344L133.08972 303.45L127.40223 303.45Q127.40223 303.075 127.52723 302.71564Q127.74598 302.1375 128.21472 301.575Q128.6991 301.0125 129.60535 300.27814Q131.0116 299.1219 131.49597 298.45Q131.99597 297.77814 131.99597 297.1844Q131.99597 296.5594 131.54285 296.1375Q131.08972 295.7 130.37097 295.7Q129.60535 295.7 129.15222 296.15314Q128.6991 296.60626 128.68347 297.41876L127.605354 297.3094Q127.71473 296.09064 128.43347 295.46564Q129.16785 294.825 130.40222 294.825Q131.6366 294.825 132.35535 295.5125Q133.0741 296.2 133.0741 297.21564Q133.0741 297.73126 132.85535 298.23126Q132.65222 298.71564 132.15222 299.27814Q131.66785 299.825 130.54285 300.77814Q129.58972 301.575 129.30847 301.8719Q129.04285 302.15314 128.87097 302.4344L133.08972 302.4344ZM134.54285 301.1844L135.60535 301.04376Q135.77722 301.9344 136.21472 302.34064Q136.65222 302.73126 137.27722 302.73126Q138.02722 302.73126 138.54285 302.21564Q139.05847 301.7 139.05847 300.9344Q139.05847 300.21564 138.5741 299.7469Q138.10535 299.2625 137.37097 299.2625Q137.0741 299.2625 136.62097 299.3875L136.74597 298.45Q136.85535 298.46564 136.91785 298.46564Q137.58972 298.46564 138.12097 298.1219Q138.66785 297.7625 138.66785 297.02814Q138.66785 296.45 138.27722 296.075Q137.8866 295.6844 137.2616 295.6844Q136.65222 295.6844 136.23035 296.075Q135.8241 296.46564 135.71472 297.23126L134.65222 297.04376Q134.83972 295.9969 135.52722 295.41876Q136.21472 294.825 137.23035 294.825Q137.93347 294.825 138.52722 295.1375Q139.12097 295.4344 139.43347 295.95Q139.74597 296.46564 139.74597 297.0594Q139.74597 297.60626 139.4491 298.075Q139.15222 298.52814 138.5741 298.79376Q139.3241 298.96564 139.74597 299.52814Q140.16785 300.075 140.16785 300.91876Q140.16785 302.04376 139.33972 302.825Q138.52722 303.60626 137.27722 303.60626Q136.15222 303.60626 135.40222 302.9344Q134.65222 302.2469 134.54285 301.1844Z" fill-rule="nonzero"/><path fill="#000000" d="M102.511604 317.45L101.46473 317.45L101.46473 310.73126Q101.074104 311.09064 100.449104 311.46564Q99.83973 311.825 99.355354 311.9969L99.355354 310.98126Q100.230354 310.5594 100.886604 309.98126Q101.55848 309.3875 101.83973 308.825L102.511604 308.825L102.511604 317.45ZM111.08973 316.4344L111.08973 317.45L105.40223 317.45Q105.40223 317.075 105.52723 316.71564Q105.74598 316.1375 106.21473 315.575Q106.699104 315.0125 107.605354 314.27814Q109.011604 313.1219 109.49598 312.45Q109.99598 311.77814 109.99598 311.1844Q109.99598 310.5594 109.542854 310.1375Q109.08973 309.7 108.37098 309.7Q107.605354 309.7 107.15223 310.15314Q106.699104 310.60626 106.68348 311.41876L105.605354 311.3094Q105.71473 310.09064 106.43348 309.46564Q107.167854 308.825 108.40223 308.825Q109.636604 308.825 110.355354 309.5125Q111.074104 310.2 111.074104 311.21564Q111.074104 311.73126 110.855354 312.23126Q110.65223 312.71564 110.15223 313.27814Q109.667854 313.825 108.542854 314.77814Q107.58973 315.575 107.30848 315.8719Q107.042854 316.15314 106.87098 316.4344L111.08973 316.4344ZM113.12098 312.4344L113.12098 311.23126L114.324104 311.23126L114.324104 312.4344L113.12098 312.4344ZM113.12098 317.45L113.12098 316.2469L114.324104 316.2469L114.324104 317.45L113.12098 317.45ZM115.542854 313.21564Q115.542854 311.6844 115.855354 310.7625Q116.167854 309.825 116.77723 309.325Q117.40223 308.825 118.33973 308.825Q119.02723 308.825 119.542854 309.10626Q120.074104 309.3875 120.417854 309.91876Q120.761604 310.4344 120.949104 311.1844Q121.136604 311.9344 121.136604 313.21564Q121.136604 314.73126 120.824104 315.65314Q120.52723 316.575 119.90223 317.09064Q119.292854 317.59064 118.33973 317.59064Q117.105354 317.59064 116.386604 316.7Q115.542854 315.6375 115.542854 313.21564ZM116.62098 313.21564Q116.62098 315.325 117.12098 316.02814Q117.62098 316.73126 118.33973 316.73126Q119.074104 316.73126 119.55848 316.02814Q120.05848 315.325 120.05848 313.21564Q120.05848 311.09064 119.55848 310.40314Q119.074104 309.7 118.324104 309.7Q117.605354 309.7 117.167854 310.3094Q116.62098 311.09064 116.62098 313.21564ZM122.542854 313.21564Q122.542854 311.6844 122.855354 310.7625Q123.167854 309.825 123.77723 309.325Q124.40223 308.825 125.33973 308.825Q126.02723 308.825 126.542854 309.10626Q127.074104 309.3875 127.417854 309.91876Q127.761604 310.4344 127.949104 311.1844Q128.1366 311.9344 128.1366 313.21564Q128.1366 314.73126 127.824104 315.65314Q127.52723 316.575 126.90223 317.09064Q126.292854 317.59064 125.33973 317.59064Q124.105354 317.59064 123.386604 316.7Q122.542854 315.6375 122.542854 313.21564ZM123.62098 313.21564Q123.62098 315.325 124.12098 316.02814Q124.62098 316.73126 125.33973 316.73126Q126.074104 316.73126 126.55848 316.02814Q127.05848 315.325 127.05848 313.21564Q127.05848 311.09064 126.55848 310.40314Q126.074104 309.7 125.324104 309.7Q124.605354 309.7 124.167854 310.3094Q123.62098 311.09064 123.62098 313.21564Z" fill-rule="nonzero"/><path fill="#000000" d="M158.68481 301.46564L159.70044 301.3719Q159.82544 302.09064 160.18481 302.41876Q160.55981 302.73126 161.12231 302.73126Q161.60669 302.73126 161.96606 302.5125Q162.34106 302.27814 162.57544 301.91876Q162.80981 301.54376 162.96606 300.91876Q163.12231 300.27814 163.12231 299.6219Q163.12231 299.54376 163.12231 299.40314Q162.80981 299.90314 162.26294 300.23126Q161.71606 300.54376 161.07544 300.54376Q159.99731 300.54376 159.26294 299.77814Q158.52856 298.9969 158.52856 297.73126Q158.52856 296.41876 159.29419 295.6219Q160.07544 294.825 161.23169 294.825Q162.05981 294.825 162.74731 295.27814Q163.45044 295.73126 163.80981 296.575Q164.16919 297.40314 164.16919 298.98126Q164.16919 300.6219 163.80981 301.60626Q163.46606 302.575 162.74731 303.09064Q162.04419 303.59064 161.10669 303.59064Q160.09106 303.59064 159.45044 303.04376Q158.80981 302.48126 158.68481 301.46564ZM162.99731 297.66876Q162.99731 296.7625 162.51294 296.23126Q162.04419 295.7 161.35669 295.7Q160.65356 295.7 160.12231 296.27814Q159.60669 296.84064 159.60669 297.7625Q159.60669 298.575 160.10669 299.09064Q160.60669 299.60626 161.32544 299.60626Q162.05981 299.60626 162.52856 299.09064Q162.99731 298.575 162.99731 297.66876ZM165.02856 303.59064L167.51294 294.71564L168.35669 294.71564L165.87231 303.59064L165.02856 303.59064ZM174.07544 302.4344L174.07544 303.45L168.38794 303.45Q168.38794 303.075 168.51294 302.71564Q168.73169 302.1375 169.20044 301.575Q169.68481 301.0125 170.59106 300.27814Q171.99731 299.1219 172.48169 298.45Q172.98169 297.77814 172.98169 297.1844Q172.98169 296.5594 172.52856 296.1375Q172.07544 295.7 171.35669 295.7Q170.59106 295.7 170.13794 296.15314Q169.68481 296.60626 169.66919 297.41876L168.59106 297.3094Q168.70044 296.09064 169.41919 295.46564Q170.15356 294.825 171.38794 294.825Q172.62231 294.825 173.34106 295.5125Q174.05981 296.2 174.05981 297.21564Q174.05981 297.73126 173.84106 298.23126Q173.63794 298.71564 173.13794 299.27814Q172.65356 299.825 171.52856 300.77814Q170.57544 301.575 170.29419 301.8719Q170.02856 302.15314 169.85669 302.4344L174.07544 302.4344ZM175.52856 301.2L176.63794 301.10626Q176.76294 301.91876 177.20044 302.325Q177.65356 302.73126 178.29419 302.73126Q179.04419 302.73126 179.57544 302.15314Q180.10669 301.575 180.10669 300.6375Q180.10669 299.73126 179.59106 299.21564Q179.09106 298.6844 178.26294 298.6844Q177.76294 298.6844 177.34106 298.91876Q176.93481 299.15314 176.70044 299.5125L175.71606 299.3875L176.54419 294.98126L180.82544 294.98126L180.82544 295.98126L177.38794 295.98126L176.93481 298.29376Q177.70044 297.7469 178.54419 297.7469Q179.66919 297.7469 180.43481 298.52814Q181.21606 299.3094 181.21606 300.54376Q181.21606 301.7 180.54419 302.5594Q179.71606 303.59064 178.29419 303.59064Q177.12231 303.59064 176.37231 302.9344Q175.63794 302.27814 175.52856 301.2ZM182.02856 303.59064L184.51294 294.71564L185.35669 294.71564L182.87231 303.59064L182.02856 303.59064ZM191.07544 302.4344L191.07544 303.45L185.38794 303.45Q185.38794 303.075 185.51294 302.71564Q185.73169 302.1375 186.20044 301.575Q186.68481 301.0125 187.59106 300.27814Q188.99731 299.1219 189.48169 298.45Q189.98169 297.77814 189.98169 297.1844Q189.98169 296.5594 189.52856 296.1375Q189.07544 295.7 188.35669 295.7Q187.59106 295.7 187.13794 296.15314Q186.68481 296.60626 186.66919 297.41876L185.59106 297.3094Q185.70044 296.09064 186.41919 295.46564Q187.15356 294.825 188.38794 294.825Q189.62231 294.825 190.34106 295.5125Q191.05981 296.2 191.05981 297.21564Q191.05981 297.73126 190.84106 298.23126Q190.63794 298.71564 190.13794 299.27814Q189.65356 299.825 188.52856 300.77814Q187.57544 301.575 187.29419 301.8719Q187.02856 302.15314 186.85669 302.4344L191.07544 302.4344ZM192.52856 299.21564Q192.52856 297.6844 192.84106 296.7625Q193.15356 295.825 193.76294 295.325Q194.38794 294.825 195.32544 294.825Q196.01294 294.825 196.52856 295.10626Q197.05981 295.3875 197.40356 295.91876Q197.74731 296.4344 197.93481 297.1844Q198.12231 297.9344 198.12231 299.21564Q198.12231 300.73126 197.80981 301.65314Q197.51294 302.575 196.88794 303.09064Q196.27856 303.59064 195.32544 303.59064Q194.09106 303.59064 193.37231 302.7Q192.52856 301.6375 192.52856 299.21564ZM193.60669 299.21564Q193.60669 301.325 194.10669 302.02814Q194.60669 302.73126 195.32544 302.73126Q196.05981 302.73126 196.54419 302.02814Q197.04419 301.325 197.04419 299.21564Q197.04419 297.09064 196.54419 296.40314Q196.05981 295.7 195.30981 295.7Q194.59106 295.7 194.15356 296.3094Q193.60669 297.09064 193.60669 299.21564ZM205.07544 302.4344L205.07544 303.45L199.38794 303.45Q199.38794 303.075 199.51294 302.71564Q199.73169 302.1375 200.20044 301.575Q200.68481 301.0125 201.59106 300.27814Q202.99731 299.1219 203.48169 298.45Q203.98169 297.77814 203.98169 297.1844Q203.98169 296.5594 203.52856 296.1375Q203.07544 295.7 202.35669 295.7Q201.59106 295.7 201.13794 296.15314Q200.68481 296.60626 200.66919 297.41876L199.59106 297.3094Q199.70044 296.09064 200.41919 295.46564Q201.15356 294.825 202.38794 294.825Q203.62231 294.825 204.34106 295.5125Q205.05981 296.2 205.05981 297.21564Q205.05981 297.73126 204.84106 298.23126Q204.63794 298.71564 204.13794 299.27814Q203.65356 299.825 202.52856 300.77814Q201.57544 301.575 201.29419 301.8719Q201.02856 302.15314 200.85669 302.4344L205.07544 302.4344ZM206.52856 301.1844L207.59106 301.04376Q207.76294 301.9344 208.20044 302.34064Q208.63794 302.73126 209.26294 302.73126Q210.01294 302.73126 210.52856 302.21564Q211.04419 301.7 211.04419 300.9344Q211.04419 300.21564 210.55981 299.7469Q210.09106 299.2625 209.35669 299.2625Q209.05981 299.2625 208.60669 299.3875L208.73169 298.45Q208.84106 298.46564 208.90356 298.46564Q209.57544 298.46564 210.10669 298.1219Q210.65356 297.7625 210.65356 297.02814Q210.65356 296.45 210.26294 296.075Q209.87231 295.6844 209.24731 295.6844Q208.63794 295.6844 208.21606 296.075Q207.80981 296.46564 207.70044 297.23126L206.63794 297.04376Q206.82544 295.9969 207.51294 295.41876Q208.20044 294.825 209.21606 294.825Q209.91919 294.825 210.51294 295.1375Q211.10669 295.4344 211.41919 295.95Q211.73169 296.46564 211.73169 297.0594Q211.73169 297.60626 211.43481 298.075Q211.13794 298.52814 210.55981 298.79376Q211.30981 298.96564 211.73169 299.52814Q212.15356 300.075 212.15356 300.91876Q212.15356 302.04376 211.32544 302.825Q210.51294 303.60626 209.26294 303.60626Q208.13794 303.60626 207.38794 302.9344Q206.63794 302.2469 206.52856 301.1844Z" fill-rule="nonzero"/><path fill="#000000" d="M174.49731 317.45L173.45044 317.45L173.45044 310.73126Q173.05981 311.09064 172.43481 311.46564Q171.82544 311.825 171.34106 311.9969L171.34106 310.98126Q172.21606 310.5594 172.87231 309.98126Q173.54419 309.3875 173.82544 308.825L174.49731 308.825L174.49731 317.45ZM183.07544 316.4344L183.07544 317.45L177.38794 317.45Q177.38794 317.075 177.51294 316.71564Q177.73169 316.1375 178.20044 315.575Q178.68481 315.0125 179.59106 314.27814Q180.99731 313.1219 181.48169 312.45Q181.98169 311.77814 181.98169 311.1844Q181.98169 310.5594 181.52856 310.1375Q181.07544 309.7 180.35669 309.7Q179.59106 309.7 179.13794 310.15314Q178.68481 310.60626 178.66919 311.41876L177.59106 311.3094Q177.70044 310.09064 178.41919 309.46564Q179.15356 308.825 180.38794 308.825Q181.62231 308.825 182.34106 309.5125Q183.05981 310.2 183.05981 311.21564Q183.05981 311.73126 182.84106 312.23126Q182.63794 312.71564 182.13794 313.27814Q181.65356 313.825 180.52856 314.77814Q179.57544 315.575 179.29419 315.8719Q179.02856 316.15314 178.85669 316.4344L183.07544 316.4344ZM185.10669 312.4344L185.10669 311.23126L186.30981 311.23126L186.30981 312.4344L185.10669 312.4344ZM185.10669 317.45L185.10669 316.2469L186.30981 316.2469L186.30981 317.45L185.10669 317.45ZM187.52856 313.21564Q187.52856 311.6844 187.84106 310.7625Q188.15356 309.825 188.76294 309.325Q189.38794 308.825 190.32544 308.825Q191.01294 308.825 191.52856 309.10626Q192.05981 309.3875 192.40356 309.91876Q192.74731 310.4344 192.93481 311.1844Q193.12231 311.9344 193.12231 313.21564Q193.12231 314.73126 192.80981 315.65314Q192.51294 316.575 191.88794 317.09064Q191.27856 317.59064 190.32544 317.59064Q189.09106 317.59064 188.37231 316.7Q187.52856 315.6375 187.52856 313.21564ZM188.60669 313.21564Q188.60669 315.325 189.10669 316.02814Q189.60669 316.73126 190.32544 316.73126Q191.05981 316.73126 191.54419 316.02814Q192.04419 315.325 192.04419 313.21564Q192.04419 311.09064 191.54419 310.40314Q191.05981 309.7 190.30981 309.7Q189.59106 309.7 189.15356 310.3094Q188.60669 311.09064 188.60669 313.21564ZM194.52856 313.21564Q194.52856 311.6844 194.84106 310.7625Q195.15356 309.825 195.76294 309.325Q196.38794 308.825 197.32544 308.825Q198.01294 308.825 198.52856 309.10626Q199.05981 309.3875 199.40356 309.91876Q199.74731 310.4344 199.93481 311.1844Q200.12231 311.9344 200.12231 313.21564Q200.12231 314.73126 199.80981 315.65314Q199.51294 316.575 198.88794 317.09064Q198.27856 317.59064 197.32544 317.59064Q196.09106 317.59064 195.37231 316.7Q194.52856 315.6375 194.52856 313.21564ZM195.60669 313.21564Q195.60669 315.325 196.10669 316.02814Q196.60669 316.73126 197.32544 316.73126Q198.05981 316.73126 198.54419 316.02814Q199.04419 315.325 199.04419 313.21564Q199.04419 311.09064 198.54419 310.40314Q198.05981 309.7 197.30981 309.7Q196.59106 309.7 196.15356 310.3094Q195.60669 311.09064 195.60669 313.21564Z" fill-rule="nonzero"/><path fill="#000000" d="M230.67053 301.46564L231.68616 301.3719Q231.81116 302.09064 232.17053 302.41876Q232.54553 302.73126 233.10803 302.73126Q233.5924 302.73126 233.95178 302.5125Q234.32678 302.27814 234.56116 301.91876Q234.79553 301.54376 234.95178 300.91876Q235.10803 300.27814 235.10803 299.6219Q235.10803 299.54376 235.10803 299.40314Q234.79553 299.90314 234.24866 300.23126Q233.70178 300.54376 233.06116 300.54376Q231.98303 300.54376 231.24866 299.77814Q230.51428 298.9969 230.51428 297.73126Q230.51428 296.41876 231.2799 295.6219Q232.06116 294.825 233.2174 294.825Q234.04553 294.825 234.73303 295.27814Q235.43616 295.73126 235.79553 296.575Q236.1549 297.40314 236.1549 298.98126Q236.1549 300.6219 235.79553 301.60626Q235.45178 302.575 234.73303 303.09064Q234.0299 303.59064 233.0924 303.59064Q232.07678 303.59064 231.43616 303.04376Q230.79553 302.48126 230.67053 301.46564ZM234.98303 297.66876Q234.98303 296.7625 234.49866 296.23126Q234.0299 295.7 233.3424 295.7Q232.63928 295.7 232.10803 296.27814Q231.5924 296.84064 231.5924 297.7625Q231.5924 298.575 232.0924 299.09064Q232.5924 299.60626 233.31116 299.60626Q234.04553 299.60626 234.51428 299.09064Q234.98303 298.575 234.98303 297.66876ZM237.01428 303.59064L239.49866 294.71564L240.3424 294.71564L237.85803 303.59064L237.01428 303.59064ZM246.06116 302.4344L246.06116 303.45L240.37366 303.45Q240.37366 303.075 240.49866 302.71564Q240.7174 302.1375 241.18616 301.575Q241.67053 301.0125 242.57678 300.27814Q243.98303 299.1219 244.4674 298.45Q244.9674 297.77814 244.9674 297.1844Q244.9674 296.5594 244.51428 296.1375Q244.06116 295.7 243.3424 295.7Q242.57678 295.7 242.12366 296.15314Q241.67053 296.60626 241.6549 297.41876L240.57678 297.3094Q240.68616 296.09064 241.4049 295.46564Q242.13928 294.825 243.37366 294.825Q244.60803 294.825 245.32678 295.5125Q246.04553 296.2 246.04553 297.21564Q246.04553 297.73126 245.82678 298.23126Q245.62366 298.71564 245.12366 299.27814Q244.63928 299.825 243.51428 300.77814Q242.56116 301.575 242.2799 301.8719Q242.01428 302.15314 241.8424 302.4344L246.06116 302.4344ZM252.98303 296.96564L251.93616 297.04376Q251.79553 296.41876 251.54553 296.1375Q251.10803 295.6844 250.48303 295.6844Q249.98303 295.6844 249.5924 295.96564Q249.10803 296.34064 248.81116 297.04376Q248.5299 297.73126 248.51428 299.0125Q248.88928 298.4344 249.43616 298.15314Q249.99866 297.8719 250.60803 297.8719Q251.6549 297.8719 252.38928 298.65314Q253.13928 299.4344 253.13928 300.65314Q253.13928 301.46564 252.7799 302.16876Q252.43616 302.85626 251.82678 303.23126Q251.2174 303.59064 250.45178 303.59064Q249.12366 303.59064 248.29553 302.6219Q247.4674 301.65314 247.4674 299.4344Q247.4674 296.9344 248.38928 295.8094Q249.18616 294.825 250.54553 294.825Q251.56116 294.825 252.20178 295.40314Q252.85803 295.96564 252.98303 296.96564ZM248.68616 300.66876Q248.68616 301.21564 248.9049 301.71564Q249.13928 302.2 249.54553 302.46564Q249.9674 302.73126 250.43616 302.73126Q251.0924 302.73126 251.57678 302.2Q252.06116 301.65314 252.06116 300.73126Q252.06116 299.84064 251.57678 299.325Q251.10803 298.8094 250.38928 298.8094Q249.67053 298.8094 249.17053 299.325Q248.68616 299.84064 248.68616 300.66876ZM254.01428 303.59064L256.49866 294.71564L257.3424 294.71564L254.85803 303.59064L254.01428 303.59064ZM263.06116 302.4344L263.06116 303.45L257.37366 303.45Q257.37366 303.075 257.49866 302.71564Q257.7174 302.1375 258.18616 301.575Q258.67053 301.0125 259.57678 300.27814Q260.98303 299.1219 261.4674 298.45Q261.9674 297.77814 261.9674 297.1844Q261.9674 296.5594 261.51428 296.1375Q261.06116 295.7 260.3424 295.7Q259.57678 295.7 259.12366 296.15314Q258.67053 296.60626 258.6549 297.41876L257.57678 297.3094Q257.68616 296.09064 258.4049 295.46564Q259.13928 294.825 260.37366 294.825Q261.60803 294.825 262.32678 295.5125Q263.04553 296.2 263.04553 297.21564Q263.04553 297.73126 262.82678 298.23126Q262.62366 298.71564 262.12366 299.27814Q261.63928 299.825 260.51428 300.77814Q259.56116 301.575 259.2799 301.8719Q259.01428 302.15314 258.8424 302.4344L263.06116 302.4344ZM264.51428 299.21564Q264.51428 297.6844 264.82678 296.7625Q265.13928 295.825 265.74866 295.325Q266.37366 294.825 267.31116 294.825Q267.99866 294.825 268.51428 295.10626Q269.04553 295.3875 269.38928 295.91876Q269.73303 296.4344 269.92053 297.1844Q270.10803 297.9344 270.10803 299.21564Q270.10803 300.73126 269.79553 301.65314Q269.49866 302.575 268.87366 303.09064Q268.26428 303.59064 267.31116 303.59064Q266.07678 303.59064 265.35803 302.7Q264.51428 301.6375 264.51428 299.21564ZM265.5924 299.21564Q265.5924 301.325 266.0924 302.02814Q266.5924 302.73126 267.31116 302.73126Q268.04553 302.73126 268.5299 302.02814Q269.0299 301.325 269.0299 299.21564Q269.0299 297.09064 268.5299 296.40314Q268.04553 295.7 267.29553 295.7Q266.57678 295.7 266.13928 296.3094Q265.5924 297.09064 265.5924 299.21564ZM277.06116 302.4344L277.06116 303.45L271.37366 303.45Q271.37366 303.075 271.49866 302.71564Q271.7174 302.1375 272.18616 301.575Q272.67053 301.0125 273.57678 300.27814Q274.98303 299.1219 275.4674 298.45Q275.9674 297.77814 275.9674 297.1844Q275.9674 296.5594 275.51428 296.1375Q275.06116 295.7 274.3424 295.7Q273.57678 295.7 273.12366 296.15314Q272.67053 296.60626 272.6549 297.41876L271.57678 297.3094Q271.68616 296.09064 272.4049 295.46564Q273.13928 294.825 274.37366 294.825Q275.60803 294.825 276.32678 295.5125Q277.04553 296.2 277.04553 297.21564Q277.04553 297.73126 276.82678 298.23126Q276.62366 298.71564 276.12366 299.27814Q275.63928 299.825 274.51428 300.77814Q273.56116 301.575 273.2799 301.8719Q273.01428 302.15314 272.8424 302.4344L277.06116 302.4344ZM278.51428 301.1844L279.57678 301.04376Q279.74866 301.9344 280.18616 302.34064Q280.62366 302.73126 281.24866 302.73126Q281.99866 302.73126 282.51428 302.21564Q283.0299 301.7 283.0299 300.9344Q283.0299 300.21564 282.54553 299.7469Q282.07678 299.2625 281.3424 299.2625Q281.04553 299.2625 280.5924 299.3875L280.7174 298.45Q280.82678 298.46564 280.88928 298.46564Q281.56116 298.46564 282.0924 298.1219Q282.63928 297.7625 282.63928 297.02814Q282.63928 296.45 282.24866 296.075Q281.85803 295.6844 281.23303 295.6844Q280.62366 295.6844 280.20178 296.075Q279.79553 296.46564 279.68616 297.23126L278.62366 297.04376Q278.81116 295.9969 279.49866 295.41876Q280.18616 294.825 281.20178 294.825Q281.9049 294.825 282.49866 295.1375Q283.0924 295.4344 283.4049 295.95Q283.7174 296.46564 283.7174 297.0594Q283.7174 297.60626 283.42053 298.075Q283.12366 298.52814 282.54553 298.79376Q283.29553 298.96564 283.7174 299.52814Q284.13928 300.075 284.13928 300.91876Q284.13928 302.04376 283.31116 302.825Q282.49866 303.60626 281.24866 303.60626Q280.12366 303.60626 279.37366 302.9344Q278.62366 302.2469 278.51428 301.1844Z" fill-rule="nonzero"/><path fill="#000000" d="M246.48303 317.45L245.43616 317.45L245.43616 310.73126Q245.04553 311.09064 244.42053 311.46564Q243.81116 311.825 243.32678 311.9969L243.32678 310.98126Q244.20178 310.5594 244.85803 309.98126Q245.5299 309.3875 245.81116 308.825L246.48303 308.825L246.48303 317.45ZM255.06116 316.4344L255.06116 317.45L249.37366 317.45Q249.37366 317.075 249.49866 316.71564Q249.7174 316.1375 250.18616 315.575Q250.67053 315.0125 251.57678 314.27814Q252.98303 313.1219 253.4674 312.45Q253.9674 311.77814 253.9674 311.1844Q253.9674 310.5594 253.51428 310.1375Q253.06116 309.7 252.3424 309.7Q251.57678 309.7 251.12366 310.15314Q250.67053 310.60626 250.6549 311.41876L249.57678 311.3094Q249.68616 310.09064 250.4049 309.46564Q251.13928 308.825 252.37366 308.825Q253.60803 308.825 254.32678 309.5125Q255.04553 310.2 255.04553 311.21564Q255.04553 311.73126 254.82678 312.23126Q254.62366 312.71564 254.12366 313.27814Q253.63928 313.825 252.51428 314.77814Q251.56116 315.575 251.2799 315.8719Q251.01428 316.15314 250.8424 316.4344L255.06116 316.4344ZM257.0924 312.4344L257.0924 311.23126L258.29553 311.23126L258.29553 312.4344L257.0924 312.4344ZM257.0924 317.45L257.0924 316.2469L258.29553 316.2469L258.29553 317.45L257.0924 317.45ZM259.51428 313.21564Q259.51428 311.6844 259.82678 310.7625Q260.13928 309.825 260.74866 309.325Q261.37366 308.825 262.31116 308.825Q262.99866 308.825 263.51428 309.10626Q264.04553 309.3875 264.38928 309.91876Q264.73303 310.4344 264.92053 311.1844Q265.10803 311.9344 265.10803 313.21564Q265.10803 314.73126 264.79553 315.65314Q264.49866 316.575 263.87366 317.09064Q263.26428 317.59064 262.31116 317.59064Q261.07678 317.59064 260.35803 316.7Q259.51428 315.6375 259.51428 313.21564ZM260.5924 313.21564Q260.5924 315.325 261.0924 316.02814Q261.5924 316.73126 262.31116 316.73126Q263.04553 316.73126 263.5299 316.02814Q264.0299 315.325 264.0299 313.21564Q264.0299 311.09064 263.5299 310.40314Q263.04553 309.7 262.29553 309.7Q261.57678 309.7 261.13928 310.3094Q260.5924 311.09064 260.5924 313.21564ZM266.51428 313.21564Q266.51428 311.6844 266.82678 310.7625Q267.13928 309.825 267.74866 309.325Q268.37366 308.825 269.31116 308.825Q269.99866 308.825 270.51428 309.10626Q271.04553 309.3875 271.38928 309.91876Q271.73303 310.4344 271.92053 311.1844Q272.10803 311.9344 272.10803 313.21564Q272.10803 314.73126 271.79553 315.65314Q271.49866 316.575 270.87366 317.09064Q270.26428 317.59064 269.31116 317.59064Q268.07678 317.59064 267.35803 316.7Q266.51428 315.6375 266.51428 313.21564ZM267.5924 313.21564Q267.5924 315.325 268.0924 316.02814Q268.5924 316.73126 269.31116 316.73126Q270.04553 316.73126 270.5299 316.02814Q271.0299 315.325 271.0299 313.21564Q271.0299 311.09064 270.5299 310.40314Q270.04553 309.7 269.29553 309.7Q268.57678 309.7 268.13928 310.3094Q267.5924 311.09064 267.5924 313.21564Z" fill-rule="nonzero"/><path fill="#000000" d="M302.65625 301.46564L303.67188 301.3719Q303.79688 302.09064 304.15625 302.41876Q304.53125 302.73126 305.09375 302.73126Q305.57812 302.73126 305.9375 302.5125Q306.3125 302.27814 306.54688 301.91876Q306.78125 301.54376 306.9375 300.91876Q307.09375 300.27814 307.09375 299.6219Q307.09375 299.54376 307.09375 299.40314Q306.78125 299.90314 306.23438 300.23126Q305.6875 300.54376 305.04688 300.54376Q303.96875 300.54376 303.23438 299.77814Q302.5 298.9969 302.5 297.73126Q302.5 296.41876 303.26562 295.6219Q304.04688 294.825 305.20312 294.825Q306.03125 294.825 306.71875 295.27814Q307.42188 295.73126 307.78125 296.575Q308.14062 297.40314 308.14062 298.98126Q308.14062 300.6219 307.78125 301.60626Q307.4375 302.575 306.71875 303.09064Q306.01562 303.59064 305.07812 303.59064Q304.0625 303.59064 303.42188 303.04376Q302.78125 302.48126 302.65625 301.46564ZM306.96875 297.66876Q306.96875 296.7625 306.48438 296.23126Q306.01562 295.7 305.32812 295.7Q304.625 295.7 304.09375 296.27814Q303.57812 296.84064 303.57812 297.7625Q303.57812 298.575 304.07812 299.09064Q304.57812 299.60626 305.29688 299.60626Q306.03125 299.60626 306.5 299.09064Q306.96875 298.575 306.96875 297.66876ZM309.0 303.59064L311.48438 294.71564L312.32812 294.71564L309.84375 303.59064L309.0 303.59064ZM318.04688 302.4344L318.04688 303.45L312.35938 303.45Q312.35938 303.075 312.48438 302.71564Q312.70312 302.1375 313.17188 301.575Q313.65625 301.0125 314.5625 300.27814Q315.96875 299.1219 316.45312 298.45Q316.95312 297.77814 316.95312 297.1844Q316.95312 296.5594 316.5 296.1375Q316.04688 295.7 315.32812 295.7Q314.5625 295.7 314.10938 296.15314Q313.65625 296.60626 313.64062 297.41876L312.5625 297.3094Q312.67188 296.09064 313.39062 295.46564Q314.125 294.825 315.35938 294.825Q316.59375 294.825 317.3125 295.5125Q318.03125 296.2 318.03125 297.21564Q318.03125 297.73126 317.8125 298.23126Q317.60938 298.71564 317.10938 299.27814Q316.625 299.825 315.5 300.77814Q314.54688 301.575 314.26562 301.8719Q314.0 302.15314 313.82812 302.4344L318.04688 302.4344ZM319.5625 295.98126L319.5625 294.96564L325.125 294.96564L325.125 295.79376Q324.3125 296.66876 323.5 298.1219Q322.70312 299.5594 322.26562 301.09064Q321.9375 302.16876 321.85938 303.45L320.76562 303.45Q320.78125 302.4344 321.15625 300.9969Q321.54688 299.5594 322.25 298.23126Q322.96875 296.90314 323.78125 295.98126L319.5625 295.98126ZM326.0 303.59064L328.48438 294.71564L329.32812 294.71564L326.84375 303.59064L326.0 303.59064ZM335.04688 302.4344L335.04688 303.45L329.35938 303.45Q329.35938 303.075 329.48438 302.71564Q329.70312 302.1375 330.17188 301.575Q330.65625 301.0125 331.5625 300.27814Q332.96875 299.1219 333.45312 298.45Q333.95312 297.77814 333.95312 297.1844Q333.95312 296.5594 333.5 296.1375Q333.04688 295.7 332.32812 295.7Q331.5625 295.7 331.10938 296.15314Q330.65625 296.60626 330.64062 297.41876L329.5625 297.3094Q329.67188 296.09064 330.39062 295.46564Q331.125 294.825 332.35938 294.825Q333.59375 294.825 334.3125 295.5125Q335.03125 296.2 335.03125 297.21564Q335.03125 297.73126 334.8125 298.23126Q334.60938 298.71564 334.10938 299.27814Q333.625 299.825 332.5 300.77814Q331.54688 301.575 331.26562 301.8719Q331.0 302.15314 330.82812 302.4344L335.04688 302.4344ZM336.5 299.21564Q336.5 297.6844 336.8125 296.7625Q337.125 295.825 337.73438 295.325Q338.35938 294.825 339.29688 294.825Q339.98438 294.825 340.5 295.10626Q341.03125 295.3875 341.375 295.91876Q341.71875 296.4344 341.90625 297.1844Q342.09375 297.9344 342.09375 299.21564Q342.09375 300.73126 341.78125 301.65314Q341.48438 302.575 340.85938 303.09064Q340.25 303.59064 339.29688 303.59064Q338.0625 303.59064 337.34375 302.7Q336.5 301.6375 336.5 299.21564ZM337.57812 299.21564Q337.57812 301.325 338.07812 302.02814Q338.57812 302.73126 339.29688 302.73126Q340.03125 302.73126 340.51562 302.02814Q341.01562 301.325 341.01562 299.21564Q341.01562 297.09064 340.51562 296.40314Q340.03125 295.7 339.28125 295.7Q338.5625 295.7 338.125 296.3094Q337.57812 297.09064 337.57812 299.21564ZM349.04688 302.4344L349.04688 303.45L343.35938 303.45Q343.35938 303.075 343.48438 302.71564Q343.70312 302.1375 344.17188 301.575Q344.65625 301.0125 345.5625 300.27814Q346.96875 299.1219 347.45312 298.45Q347.95312 297.77814 347.95312 297.1844Q347.95312 296.5594 347.5 296.1375Q347.04688 295.7 346.32812 295.7Q345.5625 295.7 345.10938 296.15314Q344.65625 296.60626 344.64062 297.41876L343.5625 297.3094Q343.67188 296.09064 344.39062 295.46564Q345.125 294.825 346.35938 294.825Q347.59375 294.825 348.3125 295.5125Q349.03125 296.2 349.03125 297.21564Q349.03125 297.73126 348.8125 298.23126Q348.60938 298.71564 348.10938 299.27814Q347.625 299.825 346.5 300.77814Q345.54688 301.575 345.26562 301.8719Q345.0 302.15314 344.82812 302.4344L349.04688 302.4344ZM350.5 301.1844L351.5625 301.04376Q351.73438 301.9344 352.17188 302.34064Q352.60938 302.73126 353.23438 302.73126Q353.98438 302.73126 354.5 302.21564Q355.01562 301.7 355.01562 300.9344Q355.01562 300.21564 354.53125 299.7469Q354.0625 299.2625 353.32812 299.2625Q353.03125 299.2625 352.57812 299.3875L352.70312 298.45Q352.8125 298.46564 352.875 298.46564Q353.54688 298.46564 354.07812 298.1219Q354.625 297.7625 354.625 297.02814Q354.625 296.45 354.23438 296.075Q353.84375 295.6844 353.21875 295.6844Q352.60938 295.6844 352.1875 296.075Q351.78125 296.46564 351.67188 297.23126L350.60938 297.04376Q350.79688 295.9969 351.48438 295.41876Q352.17188 294.825 353.1875 294.825Q353.89062 294.825 354.48438 295.1375Q355.07812 295.4344 355.39062 295.95Q355.70312 296.46564 355.70312 297.0594Q355.70312 297.60626 355.40625 298.075Q355.10938 298.52814 354.53125 298.79376Q355.28125 298.96564 355.70312 299.52814Q356.125 300.075 356.125 300.91876Q356.125 302.04376 355.29688 302.825Q354.48438 303.60626 353.23438 303.60626Q352.10938 303.60626 351.35938 302.9344Q350.60938 302.2469 350.5 301.1844Z" fill-rule="nonzero"/><path fill="#000000" d="M318.46875 317.45L317.42188 317.45L317.42188 310.73126Q317.03125 311.09064 316.40625 311.46564Q315.79688 311.825 315.3125 311.9969L315.3125 310.98126Q316.1875 310.5594 316.84375 309.98126Q317.51562 309.3875 317.79688 308.825L318.46875 308.825L318.46875 317.45ZM327.04688 316.4344L327.04688 317.45L321.35938 317.45Q321.35938 317.075 321.48438 316.71564Q321.70312 316.1375 322.17188 315.575Q322.65625 315.0125 323.5625 314.27814Q324.96875 313.1219 325.45312 312.45Q325.95312 311.77814 325.95312 311.1844Q325.95312 310.5594 325.5 310.1375Q325.04688 309.7 324.32812 309.7Q323.5625 309.7 323.10938 310.15314Q322.65625 310.60626 322.64062 311.41876L321.5625 311.3094Q321.67188 310.09064 322.39062 309.46564Q323.125 308.825 324.35938 308.825Q325.59375 308.825 326.3125 309.5125Q327.03125 310.2 327.03125 311.21564Q327.03125 311.73126 326.8125 312.23126Q326.60938 312.71564 326.10938 313.27814Q325.625 313.825 324.5 314.77814Q323.54688 315.575 323.26562 315.8719Q323.0 316.15314 322.82812 316.4344L327.04688 316.4344ZM329.07812 312.4344L329.07812 311.23126L330.28125 311.23126L330.28125 312.4344L329.07812 312.4344ZM329.07812 317.45L329.07812 316.2469L330.28125 316.2469L330.28125 317.45L329.07812 317.45ZM331.5 313.21564Q331.5 311.6844 331.8125 310.7625Q332.125 309.825 332.73438 309.325Q333.35938 308.825 334.29688 308.825Q334.98438 308.825 335.5 309.10626Q336.03125 309.3875 336.375 309.91876Q336.71875 310.4344 336.90625 311.1844Q337.09375 311.9344 337.09375 313.21564Q337.09375 314.73126 336.78125 315.65314Q336.48438 316.575 335.85938 317.09064Q335.25 317.59064 334.29688 317.59064Q333.0625 317.59064 332.34375 316.7Q331.5 315.6375 331.5 313.21564ZM332.57812 313.21564Q332.57812 315.325 333.07812 316.02814Q333.57812 316.73126 334.29688 316.73126Q335.03125 316.73126 335.51562 316.02814Q336.01562 315.325 336.01562 313.21564Q336.01562 311.09064 335.51562 310.40314Q335.03125 309.7 334.28125 309.7Q333.5625 309.7 333.125 310.3094Q332.57812 311.09064 332.57812 313.21564ZM338.5 313.21564Q338.5 311.6844 338.8125 310.7625Q339.125 309.825 339.73438 309.325Q340.35938 308.825 341.29688 308.825Q341.98438 308.825 342.5 309.10626Q343.03125 309.3875 343.375 309.91876Q343.71875 310.4344 343.90625 311.1844Q344.09375 311.9344 344.09375 313.21564Q344.09375 314.73126 343.78125 315.65314Q343.48438 316.575 342.85938 317.09064Q342.25 317.59064 341.29688 317.59064Q340.0625 317.59064 339.34375 316.7Q338.5 315.6375 338.5 313.21564ZM339.57812 313.21564Q339.57812 315.325 340.07812 316.02814Q340.57812 316.73126 341.29688 316.73126Q342.03125 316.73126 342.51562 316.02814Q343.01562 315.325 343.01562 313.21564Q343.01562 311.09064 342.51562 310.40314Q342.03125 309.7 341.28125 309.7Q340.5625 309.7 340.125 310.3094Q339.57812 311.09064 339.57812 313.21564Z" fill-rule="nonzero"/><path fill="#000000" d="M374.64197 301.46564L375.6576 301.3719Q375.7826 302.09064 376.14197 302.41876Q376.51697 302.73126 377.07947 302.73126Q377.56384 302.73126 377.92322 302.5125Q378.29822 302.27814 378.5326 301.91876Q378.76697 301.54376 378.92322 300.91876Q379.07947 300.27814 379.07947 299.6219Q379.07947 299.54376 379.07947 299.40314Q378.76697 299.90314 378.2201 300.23126Q377.67322 300.54376 377.0326 300.54376Q375.95447 300.54376 375.2201 299.77814Q374.48572 298.9969 374.48572 297.73126Q374.48572 296.41876 375.25134 295.6219Q376.0326 294.825 377.18884 294.825Q378.01697 294.825 378.70447 295.27814Q379.4076 295.73126 379.76697 296.575Q380.12634 297.40314 380.12634 298.98126Q380.12634 300.6219 379.76697 301.60626Q379.42322 302.575 378.70447 303.09064Q378.00134 303.59064 377.06384 303.59064Q376.04822 303.59064 375.4076 303.04376Q374.76697 302.48126 374.64197 301.46564ZM378.95447 297.66876Q378.95447 296.7625 378.4701 296.23126Q378.00134 295.7 377.31384 295.7Q376.61072 295.7 376.07947 296.27814Q375.56384 296.84064 375.56384 297.7625Q375.56384 298.575 376.06384 299.09064Q376.56384 299.60626 377.2826 299.60626Q378.01697 299.60626 378.48572 299.09064Q378.95447 298.575 378.95447 297.66876ZM380.98572 303.59064L383.4701 294.71564L384.31384 294.71564L381.82947 303.59064L380.98572 303.59064ZM390.0326 302.4344L390.0326 303.45L384.3451 303.45Q384.3451 303.075 384.4701 302.71564Q384.68884 302.1375 385.1576 301.575Q385.64197 301.0125 386.54822 300.27814Q387.95447 299.1219 388.43884 298.45Q388.93884 297.77814 388.93884 297.1844Q388.93884 296.5594 388.48572 296.1375Q388.0326 295.7 387.31384 295.7Q386.54822 295.7 386.0951 296.15314Q385.64197 296.60626 385.62634 297.41876L384.54822 297.3094Q384.6576 296.09064 385.37634 295.46564Q386.11072 294.825 387.3451 294.825Q388.57947 294.825 389.29822 295.5125Q390.01697 296.2 390.01697 297.21564Q390.01697 297.73126 389.79822 298.23126Q389.5951 298.71564 389.0951 299.27814Q388.61072 299.825 387.48572 300.77814Q386.5326 301.575 386.25134 301.8719Q385.98572 302.15314 385.81384 302.4344L390.0326 302.4344ZM393.11072 298.79376Q392.45447 298.54376 392.12634 298.10626Q391.81384 297.65314 391.81384 297.04376Q391.81384 296.10626 392.48572 295.46564Q393.17322 294.825 394.2826 294.825Q395.4076 294.825 396.0951 295.48126Q396.7826 296.1375 396.7826 297.075Q396.7826 297.66876 396.4701 298.10626Q396.1576 298.54376 395.51697 298.79376Q396.31384 299.04376 396.7201 299.6219Q397.12634 300.2 397.12634 300.9969Q397.12634 302.09064 396.3451 302.84064Q395.57947 303.59064 394.29822 303.59064Q393.0326 303.59064 392.25134 302.84064Q391.4701 302.09064 391.4701 300.96564Q391.4701 300.1219 391.89197 299.5594Q392.32947 298.9969 393.11072 298.79376ZM392.89197 296.9969Q392.89197 297.60626 393.2826 297.9969Q393.68884 298.3875 394.31384 298.3875Q394.92322 298.3875 395.31384 298.0125Q395.70447 297.6219 395.70447 297.0594Q395.70447 296.48126 395.29822 296.09064Q394.89197 295.6844 394.29822 295.6844Q393.68884 295.6844 393.2826 296.075Q392.89197 296.46564 392.89197 296.9969ZM392.56384 300.96564Q392.56384 301.41876 392.76697 301.84064Q392.98572 302.2625 393.4076 302.4969Q393.82947 302.73126 394.31384 302.73126Q395.06384 302.73126 395.54822 302.2469Q396.04822 301.7625 396.04822 301.0125Q396.04822 300.2469 395.54822 299.7469Q395.04822 299.2469 394.2826 299.2469Q393.5326 299.2469 393.04822 299.7469Q392.56384 300.23126 392.56384 300.96564ZM397.98572 303.59064L400.4701 294.71564L401.31384 294.71564L398.82947 303.59064L397.98572 303.59064ZM407.0326 302.4344L407.0326 303.45L401.3451 303.45Q401.3451 303.075 401.4701 302.71564Q401.68884 302.1375 402.1576 301.575Q402.64197 301.0125 403.54822 300.27814Q404.95447 299.1219 405.43884 298.45Q405.93884 297.77814 405.93884 297.1844Q405.93884 296.5594 405.48572 296.1375Q405.0326 295.7 404.31384 295.7Q403.54822 295.7 403.0951 296.15314Q402.64197 296.60626 402.62634 297.41876L401.54822 297.3094Q401.6576 296.09064 402.37634 295.46564Q403.11072 294.825 404.3451 294.825Q405.57947 294.825 406.29822 295.5125Q407.01697 296.2 407.01697 297.21564Q407.01697 297.73126 406.79822 298.23126Q406.5951 298.71564 406.0951 299.27814Q405.61072 299.825 404.48572 300.77814Q403.5326 301.575 403.25134 301.8719Q402.98572 302.15314 402.81384 302.4344L407.0326 302.4344ZM408.48572 299.21564Q408.48572 297.6844 408.79822 296.7625Q409.11072 295.825 409.7201 295.325Q410.3451 294.825 411.2826 294.825Q411.9701 294.825 412.48572 295.10626Q413.01697 295.3875 413.36072 295.91876Q413.70447 296.4344 413.89197 297.1844Q414.07947 297.9344 414.07947 299.21564Q414.07947 300.73126 413.76697 301.65314Q413.4701 302.575 412.8451 303.09064Q412.23572 303.59064 411.2826 303.59064Q410.04822 303.59064 409.32947 302.7Q408.48572 301.6375 408.48572 299.21564ZM409.56384 299.21564Q409.56384 301.325 410.06384 302.02814Q410.56384 302.73126 411.2826 302.73126Q412.01697 302.73126 412.50134 302.02814Q413.00134 301.325 413.00134 299.21564Q413.00134 297.09064 412.50134 296.40314Q412.01697 295.7 411.26697 295.7Q410.54822 295.7 410.11072 296.3094Q409.56384 297.09064 409.56384 299.21564ZM421.0326 302.4344L421.0326 303.45L415.3451 303.45Q415.3451 303.075 415.4701 302.71564Q415.68884 302.1375 416.1576 301.575Q416.64197 301.0125 417.54822 300.27814Q418.95447 299.1219 419.43884 298.45Q419.93884 297.77814 419.93884 297.1844Q419.93884 296.5594 419.48572 296.1375Q419.0326 295.7 418.31384 295.7Q417.54822 295.7 417.0951 296.15314Q416.64197 296.60626 416.62634 297.41876L415.54822 297.3094Q415.6576 296.09064 416.37634 295.46564Q417.11072 294.825 418.3451 294.825Q419.57947 294.825 420.29822 295.5125Q421.01697 296.2 421.01697 297.21564Q421.01697 297.73126 420.79822 298.23126Q420.5951 298.71564 420.0951 299.27814Q419.61072 299.825 418.48572 300.77814Q417.5326 301.575 417.25134 301.8719Q416.98572 302.15314 416.81384 302.4344L421.0326 302.4344ZM422.48572 301.1844L423.54822 301.04376Q423.7201 301.9344 424.1576 302.34064Q424.5951 302.73126 425.2201 302.73126Q425.9701 302.73126 426.48572 302.21564Q427.00134 301.7 427.00134 300.9344Q427.00134 300.21564 426.51697 299.7469Q426.04822 299.2625 425.31384 299.2625Q425.01697 299.2625 424.56384 299.3875L424.68884 298.45Q424.79822 298.46564 424.86072 298.46564Q425.5326 298.46564 426.06384 298.1219Q426.61072 297.7625 426.61072 297.02814Q426.61072 296.45 426.2201 296.075Q425.82947 295.6844 425.20447 295.6844Q424.5951 295.6844 424.17322 296.075Q423.76697 296.46564 423.6576 297.23126L422.5951 297.04376Q422.7826 295.9969 423.4701 295.41876Q424.1576 294.825 425.17322 294.825Q425.87634 294.825 426.4701 295.1375Q427.06384 295.4344 427.37634 295.95Q427.68884 296.46564 427.68884 297.0594Q427.68884 297.60626 427.39197 298.075Q427.0951 298.52814 426.51697 298.79376Q427.26697 298.96564 427.68884 299.52814Q428.11072 300.075 428.11072 300.91876Q428.11072 302.04376 427.2826 302.825Q426.4701 303.60626 425.2201 303.60626Q424.0951 303.60626 423.3451 302.9344Q422.5951 302.2469 422.48572 301.1844Z" fill-rule="nonzero"/><path fill="#000000" d="M390.45447 317.45L389.4076 317.45L389.4076 310.73126Q389.01697 311.09064 388.39197 311.46564Q387.7826 311.825 387.29822 311.9969L387.29822 310.98126Q388.17322 310.5594 388.82947 309.98126Q389.50134 309.3875 389.7826 308.825L390.45447 308.825L390.45447 317.45ZM399.0326 316.4344L399.0326 317.45L393.3451 317.45Q393.3451 317.075 393.4701 316.71564Q393.68884 316.1375 394.1576 315.575Q394.64197 315.0125 395.54822 314.27814Q396.95447 313.1219 397.43884 312.45Q397.93884 311.77814 397.93884 311.1844Q397.93884 310.5594 397.48572 310.1375Q397.0326 309.7 396.31384 309.7Q395.54822 309.7 395.0951 310.15314Q394.64197 310.60626 394.62634 311.41876L393.54822 311.3094Q393.6576 310.09064 394.37634 309.46564Q395.11072 308.825 396.3451 308.825Q397.57947 308.825 398.29822 309.5125Q399.01697 310.2 399.01697 311.21564Q399.01697 311.73126 398.79822 312.23126Q398.5951 312.71564 398.0951 313.27814Q397.61072 313.825 396.48572 314.77814Q395.5326 315.575 395.25134 315.8719Q394.98572 316.15314 394.81384 316.4344L399.0326 316.4344ZM401.06384 312.4344L401.06384 311.23126L402.26697 311.23126L402.26697 312.4344L401.06384 312.4344ZM401.06384 317.45L401.06384 316.2469L402.26697 316.2469L402.26697 317.45L401.06384 317.45ZM403.48572 313.21564Q403.48572 311.6844 403.79822 310.7625Q404.11072 309.825 404.7201 309.325Q405.3451 308.825 406.2826 308.825Q406.9701 308.825 407.48572 309.10626Q408.01697 309.3875 408.36072 309.91876Q408.70447 310.4344 408.89197 311.1844Q409.07947 311.9344 409.07947 313.21564Q409.07947 314.73126 408.76697 315.65314Q408.4701 316.575 407.8451 317.09064Q407.23572 317.59064 406.2826 317.59064Q405.04822 317.59064 404.32947 316.7Q403.48572 315.6375 403.48572 313.21564ZM404.56384 313.21564Q404.56384 315.325 405.06384 316.02814Q405.56384 316.73126 406.2826 316.73126Q407.01697 316.73126 407.50134 316.02814Q408.00134 315.325 408.00134 313.21564Q408.00134 311.09064 407.50134 310.40314Q407.01697 309.7 406.26697 309.7Q405.54822 309.7 405.11072 310.3094Q404.56384 311.09064 404.56384 313.21564ZM410.48572 313.21564Q410.48572 311.6844 410.79822 310.7625Q411.11072 309.825 411.7201 309.325Q412.3451 308.825 413.2826 308.825Q413.9701 308.825 414.48572 309.10626Q415.01697 309.3875 415.36072 309.91876Q415.70447 310.4344 415.89197 311.1844Q416.07947 311.9344 416.07947 313.21564Q416.07947 314.73126 415.76697 315.65314Q415.4701 316.575 414.8451 317.09064Q414.23572 317.59064 413.2826 317.59064Q412.04822 317.59064 411.32947 316.7Q410.48572 315.6375 410.48572 313.21564ZM411.56384 313.21564Q411.56384 315.325 412.06384 316.02814Q412.56384 316.73126 413.2826 316.73126Q414.01697 316.73126 414.50134 316.02814Q415.00134 315.325 415.00134 313.21564Q415.00134 311.09064 414.50134 310.40314Q414.01697 309.7 413.26697 309.7Q412.54822 309.7 412.11072 310.3094Q411.56384 311.09064 411.56384 313.21564Z" fill-rule="nonzero"/><path fill="#000000" d="M446.6277 301.46564L447.6433 301.3719Q447.7683 302.09064 448.1277 302.41876Q448.5027 302.73126 449.0652 302.73126Q449.54956 302.73126 449.90894 302.5125Q450.28394 302.27814 450.5183 301.91876Q450.7527 301.54376 450.90894 300.91876Q451.0652 300.27814 451.0652 299.6219Q451.0652 299.54376 451.0652 299.40314Q450.7527 299.90314 450.2058 300.23126Q449.65894 300.54376 449.0183 300.54376Q447.9402 300.54376 447.2058 299.77814Q446.47144 298.9969 446.47144 297.73126Q446.47144 296.41876 447.23706 295.6219Q448.0183 294.825 449.17456 294.825Q450.0027 294.825 450.6902 295.27814Q451.3933 295.73126 451.7527 296.575Q452.11206 297.40314 452.11206 298.98126Q452.11206 300.6219 451.7527 301.60626Q451.40894 302.575 450.6902 303.09064Q449.98706 303.59064 449.04956 303.59064Q448.03394 303.59064 447.3933 303.04376Q446.7527 302.48126 446.6277 301.46564ZM450.9402 297.66876Q450.9402 296.7625 450.4558 296.23126Q449.98706 295.7 449.29956 295.7Q448.59644 295.7 448.0652 296.27814Q447.54956 296.84064 447.54956 297.7625Q447.54956 298.575 448.04956 299.09064Q448.54956 299.60626 449.2683 299.60626Q450.0027 299.60626 450.47144 299.09064Q450.9402 298.575 450.9402 297.66876ZM452.97144 303.59064L455.4558 294.71564L456.29956 294.71564L453.8152 303.59064L452.97144 303.59064ZM462.0183 302.4344L462.0183 303.45L456.3308 303.45Q456.3308 303.075 456.4558 302.71564Q456.67456 302.1375 457.1433 301.575Q457.6277 301.0125 458.53394 300.27814Q459.9402 299.1219 460.42456 298.45Q460.92456 297.77814 460.92456 297.1844Q460.92456 296.5594 460.47144 296.1375Q460.0183 295.7 459.29956 295.7Q458.53394 295.7 458.0808 296.15314Q457.6277 296.60626 457.61206 297.41876L456.53394 297.3094Q456.6433 296.09064 457.36206 295.46564Q458.09644 294.825 459.3308 294.825Q460.5652 294.825 461.28394 295.5125Q462.0027 296.2 462.0027 297.21564Q462.0027 297.73126 461.78394 298.23126Q461.5808 298.71564 461.0808 299.27814Q460.59644 299.825 459.47144 300.77814Q458.5183 301.575 458.23706 301.8719Q457.97144 302.15314 457.79956 302.4344L462.0183 302.4344ZM463.6277 301.46564L464.6433 301.3719Q464.7683 302.09064 465.1277 302.41876Q465.5027 302.73126 466.0652 302.73126Q466.54956 302.73126 466.90894 302.5125Q467.28394 302.27814 467.5183 301.91876Q467.7527 301.54376 467.90894 300.91876Q468.0652 300.27814 468.0652 299.6219Q468.0652 299.54376 468.0652 299.40314Q467.7527 299.90314 467.2058 300.23126Q466.65894 300.54376 466.0183 300.54376Q464.9402 300.54376 464.2058 299.77814Q463.47144 298.9969 463.47144 297.73126Q463.47144 296.41876 464.23706 295.6219Q465.0183 294.825 466.17456 294.825Q467.0027 294.825 467.6902 295.27814Q468.3933 295.73126 468.7527 296.575Q469.11206 297.40314 469.11206 298.98126Q469.11206 300.6219 468.7527 301.60626Q468.40894 302.575 467.6902 303.09064Q466.98706 303.59064 466.04956 303.59064Q465.03394 303.59064 464.3933 303.04376Q463.7527 302.48126 463.6277 301.46564ZM467.9402 297.66876Q467.9402 296.7625 467.4558 296.23126Q466.98706 295.7 466.29956 295.7Q465.59644 295.7 465.0652 296.27814Q464.54956 296.84064 464.54956 297.7625Q464.54956 298.575 465.04956 299.09064Q465.54956 299.60626 466.2683 299.60626Q467.0027 299.60626 467.47144 299.09064Q467.9402 298.575 467.9402 297.66876ZM469.97144 303.59064L472.4558 294.71564L473.29956 294.71564L470.8152 303.59064L469.97144 303.59064ZM479.0183 302.4344L479.0183 303.45L473.3308 303.45Q473.3308 303.075 473.4558 302.71564Q473.67456 302.1375 474.1433 301.575Q474.6277 301.0125 475.53394 300.27814Q476.9402 299.1219 477.42456 298.45Q477.92456 297.77814 477.92456 297.1844Q477.92456 296.5594 477.47144 296.1375Q477.0183 295.7 476.29956 295.7Q475.53394 295.7 475.0808 296.15314Q474.6277 296.60626 474.61206 297.41876L473.53394 297.3094Q473.6433 296.09064 474.36206 295.46564Q475.09644 294.825 476.3308 294.825Q477.5652 294.825 478.28394 295.5125Q479.0027 296.2 479.0027 297.21564Q479.0027 297.73126 478.78394 298.23126Q478.5808 298.71564 478.0808 299.27814Q477.59644 299.825 476.47144 300.77814Q475.5183 301.575 475.23706 301.8719Q474.97144 302.15314 474.79956 302.4344L479.0183 302.4344ZM480.47144 299.21564Q480.47144 297.6844 480.78394 296.7625Q481.09644 295.825 481.7058 295.325Q482.3308 294.825 483.2683 294.825Q483.9558 294.825 484.47144 295.10626Q485.0027 295.3875 485.34644 295.91876Q485.6902 296.4344 485.8777 297.1844Q486.0652 297.9344 486.0652 299.21564Q486.0652 300.73126 485.7527 301.65314Q485.4558 302.575 484.8308 303.09064Q484.22144 303.59064 483.2683 303.59064Q482.03394 303.59064 481.3152 302.7Q480.47144 301.6375 480.47144 299.21564ZM481.54956 299.21564Q481.54956 301.325 482.04956 302.02814Q482.54956 302.73126 483.2683 302.73126Q484.0027 302.73126 484.48706 302.02814Q484.98706 301.325 484.98706 299.21564Q484.98706 297.09064 484.48706 296.40314Q484.0027 295.7 483.2527 295.7Q482.53394 295.7 482.09644 296.3094Q481.54956 297.09064 481.54956 299.21564ZM493.0183 302.4344L493.0183 303.45L487.3308 303.45Q487.3308 303.075 487.4558 302.71564Q487.67456 302.1375 488.1433 301.575Q488.6277 301.0125 489.53394 300.27814Q490.9402 299.1219 491.42456 298.45Q491.92456 297.77814 491.92456 297.1844Q491.92456 296.5594 491.47144 296.1375Q491.0183 295.7 490.29956 295.7Q489.53394 295.7 489.0808 296.15314Q488.6277 296.60626 488.61206 297.41876L487.53394 297.3094Q487.6433 296.09064 488.36206 295.46564Q489.09644 294.825 490.3308 294.825Q491.5652 294.825 492.28394 295.5125Q493.0027 296.2 493.0027 297.21564Q493.0027 297.73126 492.78394 298.23126Q492.5808 298.71564 492.0808 299.27814Q491.59644 299.825 490.47144 300.77814Q489.5183 301.575 489.23706 301.8719Q488.97144 302.15314 488.79956 302.4344L493.0183 302.4344ZM494.47144 301.1844L495.53394 301.04376Q495.7058 301.9344 496.1433 302.34064Q496.5808 302.73126 497.2058 302.73126Q497.9558 302.73126 498.47144 302.21564Q498.98706 301.7 498.98706 300.9344Q498.98706 300.21564 498.5027 299.7469Q498.03394 299.2625 497.29956 299.2625Q497.0027 299.2625 496.54956 299.3875L496.67456 298.45Q496.78394 298.46564 496.84644 298.46564Q497.5183 298.46564 498.04956 298.1219Q498.59644 297.7625 498.59644 297.02814Q498.59644 296.45 498.2058 296.075Q497.8152 295.6844 497.1902 295.6844Q496.5808 295.6844 496.15894 296.075Q495.7527 296.46564 495.6433 297.23126L494.5808 297.04376Q494.7683 295.9969 495.4558 295.41876Q496.1433 294.825 497.15894 294.825Q497.86206 294.825 498.4558 295.1375Q499.04956 295.4344 499.36206 295.95Q499.67456 296.46564 499.67456 297.0594Q499.67456 297.60626 499.3777 298.075Q499.0808 298.52814 498.5027 298.79376Q499.2527 298.96564 499.67456 299.52814Q500.09644 300.075 500.09644 300.91876Q500.09644 302.04376 499.2683 302.825Q498.4558 303.60626 497.2058 303.60626Q496.0808 303.60626 495.3308 302.9344Q494.5808 302.2469 494.47144 301.1844Z" fill-rule="nonzero"/><path fill="#000000" d="M462.4402 317.45L461.3933 317.45L461.3933 310.73126Q461.0027 311.09064 460.3777 311.46564Q459.7683 311.825 459.28394 311.9969L459.28394 310.98126Q460.15894 310.5594 460.8152 309.98126Q461.48706 309.3875 461.7683 308.825L462.4402 308.825L462.4402 317.45ZM471.0183 316.4344L471.0183 317.45L465.3308 317.45Q465.3308 317.075 465.4558 316.71564Q465.67456 316.1375 466.1433 315.575Q466.6277 315.0125 467.53394 314.27814Q468.9402 313.1219 469.42456 312.45Q469.92456 311.77814 469.92456 311.1844Q469.92456 310.5594 469.47144 310.1375Q469.0183 309.7 468.29956 309.7Q467.53394 309.7 467.0808 310.15314Q466.6277 310.60626 466.61206 311.41876L465.53394 311.3094Q465.6433 310.09064 466.36206 309.46564Q467.09644 308.825 468.3308 308.825Q469.5652 308.825 470.28394 309.5125Q471.0027 310.2 471.0027 311.21564Q471.0027 311.73126 470.78394 312.23126Q470.5808 312.71564 470.0808 313.27814Q469.59644 313.825 468.47144 314.77814Q467.5183 315.575 467.23706 315.8719Q466.97144 316.15314 466.79956 316.4344L471.0183 316.4344ZM473.04956 312.4344L473.04956 311.23126L474.2527 311.23126L474.2527 312.4344L473.04956 312.4344ZM473.04956 317.45L473.04956 316.2469L474.2527 316.2469L474.2527 317.45L473.04956 317.45ZM475.47144 313.21564Q475.47144 311.6844 475.78394 310.7625Q476.09644 309.825 476.7058 309.325Q477.3308 308.825 478.2683 308.825Q478.9558 308.825 479.47144 309.10626Q480.0027 309.3875 480.34644 309.91876Q480.6902 310.4344 480.8777 311.1844Q481.0652 311.9344 481.0652 313.21564Q481.0652 314.73126 480.7527 315.65314Q480.4558 316.575 479.8308 317.09064Q479.22144 317.59064 478.2683 317.59064Q477.03394 317.59064 476.3152 316.7Q475.47144 315.6375 475.47144 313.21564ZM476.54956 313.21564Q476.54956 315.325 477.04956 316.02814Q477.54956 316.73126 478.2683 316.73126Q479.0027 316.73126 479.48706 316.02814Q479.98706 315.325 479.98706 313.21564Q479.98706 311.09064 479.48706 310.40314Q479.0027 309.7 478.2527 309.7Q477.53394 309.7 477.09644 310.3094Q476.54956 311.09064 476.54956 313.21564ZM482.47144 313.21564Q482.47144 311.6844 482.78394 310.7625Q483.09644 309.825 483.7058 309.325Q484.3308 308.825 485.2683 308.825Q485.9558 308.825 486.47144 309.10626Q487.0027 309.3875 487.34644 309.91876Q487.6902 310.4344 487.8777 311.1844Q488.0652 311.9344 488.0652 313.21564Q488.0652 314.73126 487.7527 315.65314Q487.4558 316.575 486.8308 317.09064Q486.22144 317.59064 485.2683 317.59064Q484.03394 317.59064 483.3152 316.7Q482.47144 315.6375 482.47144 313.21564ZM483.54956 313.21564Q483.54956 315.325 484.04956 316.02814Q484.54956 316.73126 485.2683 316.73126Q486.0027 316.73126 486.48706 316.02814Q486.98706 315.325 486.98706 313.21564Q486.98706 311.09064 486.48706 310.40314Q486.0027 309.7 485.2527 309.7Q484.53394 309.7 484.09644 310.3094Q483.54956 311.09064 483.54956 313.21564Z" fill-rule="nonzero"/><path fill="#000000" d="M518.6134 301.46564L519.629 301.3719Q519.754 302.09064 520.1134 302.41876Q520.4884 302.73126 521.0509 302.73126Q521.5353 302.73126 521.89465 302.5125Q522.26965 302.27814 522.504 301.91876Q522.7384 301.54376 522.89465 300.91876Q523.0509 300.27814 523.0509 299.6219Q523.0509 299.54376 523.0509 299.40314Q522.7384 299.90314 522.1915 300.23126Q521.64465 300.54376 521.004 300.54376Q519.9259 300.54376 519.1915 299.77814Q518.45715 298.9969 518.45715 297.73126Q518.45715 296.41876 519.2228 295.6219Q520.004 294.825 521.1603 294.825Q521.9884 294.825 522.6759 295.27814Q523.379 295.73126 523.7384 296.575Q524.0978 297.40314 524.0978 298.98126Q524.0978 300.6219 523.7384 301.60626Q523.39465 302.575 522.6759 303.09064Q521.9728 303.59064 521.0353 303.59064Q520.01965 303.59064 519.379 303.04376Q518.7384 302.48126 518.6134 301.46564ZM522.9259 297.66876Q522.9259 296.7625 522.4415 296.23126Q521.9728 295.7 521.2853 295.7Q520.58215 295.7 520.0509 296.27814Q519.5353 296.84064 519.5353 297.7625Q519.5353 298.575 520.0353 299.09064Q520.5353 299.60626 521.254 299.60626Q521.9884 299.60626 522.45715 299.09064Q522.9259 298.575 522.9259 297.66876ZM524.95715 303.59064L527.4415 294.71564L528.2853 294.71564L525.8009 303.59064L524.95715 303.59064ZM528.45715 301.1844L529.51965 301.04376Q529.6915 301.9344 530.129 302.34064Q530.5665 302.73126 531.1915 302.73126Q531.9415 302.73126 532.45715 302.21564Q532.9728 301.7 532.9728 300.9344Q532.9728 300.21564 532.4884 299.7469Q532.01965 299.2625 531.2853 299.2625Q530.9884 299.2625 530.5353 299.3875L530.6603 298.45Q530.76965 298.46564 530.83215 298.46564Q531.504 298.46564 532.0353 298.1219Q532.58215 297.7625 532.58215 297.02814Q532.58215 296.45 532.1915 296.075Q531.8009 295.6844 531.1759 295.6844Q530.5665 295.6844 530.14465 296.075Q529.7384 296.46564 529.629 297.23126L528.5665 297.04376Q528.754 295.9969 529.4415 295.41876Q530.129 294.825 531.14465 294.825Q531.8478 294.825 532.4415 295.1375Q533.0353 295.4344 533.3478 295.95Q533.6603 296.46564 533.6603 297.0594Q533.6603 297.60626 533.3634 298.075Q533.0665 298.52814 532.4884 298.79376Q533.2384 298.96564 533.6603 299.52814Q534.08215 300.075 534.08215 300.91876Q534.08215 302.04376 533.254 302.825Q532.4415 303.60626 531.1915 303.60626Q530.0665 303.60626 529.3165 302.9344Q528.5665 302.2469 528.45715 301.1844ZM535.45715 299.21564Q535.45715 297.6844 535.76965 296.7625Q536.08215 295.825 536.6915 295.325Q537.3165 294.825 538.254 294.825Q538.9415 294.825 539.45715 295.10626Q539.9884 295.3875 540.33215 295.91876Q540.6759 296.4344 540.8634 297.1844Q541.0509 297.9344 541.0509 299.21564Q541.0509 300.73126 540.7384 301.65314Q540.4415 302.575 539.8165 303.09064Q539.20715 303.59064 538.254 303.59064Q537.01965 303.59064 536.3009 302.7Q535.45715 301.6375 535.45715 299.21564ZM536.5353 299.21564Q536.5353 301.325 537.0353 302.02814Q537.5353 302.73126 538.254 302.73126Q538.9884 302.73126 539.4728 302.02814Q539.9728 301.325 539.9728 299.21564Q539.9728 297.09064 539.4728 296.40314Q538.9884 295.7 538.2384 295.7Q537.51965 295.7 537.08215 296.3094Q536.5353 297.09064 536.5353 299.21564ZM541.95715 303.59064L544.4415 294.71564L545.2853 294.71564L542.8009 303.59064L541.95715 303.59064ZM551.004 302.4344L551.004 303.45L545.3165 303.45Q545.3165 303.075 545.4415 302.71564Q545.6603 302.1375 546.129 301.575Q546.6134 301.0125 547.51965 300.27814Q548.9259 299.1219 549.4103 298.45Q549.9103 297.77814 549.9103 297.1844Q549.9103 296.5594 549.45715 296.1375Q549.004 295.7 548.2853 295.7Q547.51965 295.7 547.0665 296.15314Q546.6134 296.60626 546.5978 297.41876L545.51965 297.3094Q545.629 296.09064 546.3478 295.46564Q547.08215 294.825 548.3165 294.825Q549.5509 294.825 550.26965 295.5125Q550.9884 296.2 550.9884 297.21564Q550.9884 297.73126 550.76965 298.23126Q550.5665 298.71564 550.0665 299.27814Q549.58215 299.825 548.45715 300.77814Q547.504 301.575 547.2228 301.8719Q546.95715 302.15314 546.7853 302.4344L551.004 302.4344ZM552.45715 299.21564Q552.45715 297.6844 552.76965 296.7625Q553.08215 295.825 553.6915 295.325Q554.3165 294.825 555.254 294.825Q555.9415 294.825 556.45715 295.10626Q556.9884 295.3875 557.33215 295.91876Q557.6759 296.4344 557.8634 297.1844Q558.0509 297.9344 558.0509 299.21564Q558.0509 300.73126 557.7384 301.65314Q557.4415 302.575 556.8165 303.09064Q556.20715 303.59064 555.254 303.59064Q554.01965 303.59064 553.3009 302.7Q552.45715 301.6375 552.45715 299.21564ZM553.5353 299.21564Q553.5353 301.325 554.0353 302.02814Q554.5353 302.73126 555.254 302.73126Q555.9884 302.73126 556.4728 302.02814Q556.9728 301.325 556.9728 299.21564Q556.9728 297.09064 556.4728 296.40314Q555.9884 295.7 555.2384 295.7Q554.51965 295.7 554.08215 296.3094Q553.5353 297.09064 553.5353 299.21564ZM565.004 302.4344L565.004 303.45L559.3165 303.45Q559.3165 303.075 559.4415 302.71564Q559.6603 302.1375 560.129 301.575Q560.6134 301.0125 561.51965 300.27814Q562.9259 299.1219 563.4103 298.45Q563.9103 297.77814 563.9103 297.1844Q563.9103 296.5594 563.45715 296.1375Q563.004 295.7 562.2853 295.7Q561.51965 295.7 561.0665 296.15314Q560.6134 296.60626 560.5978 297.41876L559.51965 297.3094Q559.629 296.09064 560.3478 295.46564Q561.08215 294.825 562.3165 294.825Q563.5509 294.825 564.26965 295.5125Q564.9884 296.2 564.9884 297.21564Q564.9884 297.73126 564.76965 298.23126Q564.5665 298.71564 564.0665 299.27814Q563.58215 299.825 562.45715 300.77814Q561.504 301.575 561.2228 301.8719Q560.95715 302.15314 560.7853 302.4344L565.004 302.4344ZM566.45715 301.1844L567.51965 301.04376Q567.6915 301.9344 568.129 302.34064Q568.5665 302.73126 569.1915 302.73126Q569.9415 302.73126 570.45715 302.21564Q570.9728 301.7 570.9728 300.9344Q570.9728 300.21564 570.4884 299.7469Q570.01965 299.2625 569.2853 299.2625Q568.9884 299.2625 568.5353 299.3875L568.6603 298.45Q568.76965 298.46564 568.83215 298.46564Q569.504 298.46564 570.0353 298.1219Q570.58215 297.7625 570.58215 297.02814Q570.58215 296.45 570.1915 296.075Q569.8009 295.6844 569.1759 295.6844Q568.5665 295.6844 568.14465 296.075Q567.7384 296.46564 567.629 297.23126L566.5665 297.04376Q566.754 295.9969 567.4415 295.41876Q568.129 294.825 569.14465 294.825Q569.8478 294.825 570.4415 295.1375Q571.0353 295.4344 571.3478 295.95Q571.6603 296.46564 571.6603 297.0594Q571.6603 297.60626 571.3634 298.075Q571.0665 298.52814 570.4884 298.79376Q571.2384 298.96564 571.6603 299.52814Q572.08215 300.075 572.08215 300.91876Q572.08215 302.04376 571.254 302.825Q570.4415 303.60626 569.1915 303.60626Q568.0665 303.60626 567.3165 302.9344Q566.5665 302.2469 566.45715 301.1844Z" fill-rule="nonzero"/><path fill="#000000" d="M534.4259 317.45L533.379 317.45L533.379 310.73126Q532.9884 311.09064 532.3634 311.46564Q531.754 311.825 531.26965 311.9969L531.26965 310.98126Q532.14465 310.5594 532.8009 309.98126Q533.4728 309.3875 533.754 308.825L534.4259 308.825L534.4259 317.45ZM543.004 316.4344L543.004 317.45L537.3165 317.45Q537.3165 317.075 537.4415 316.71564Q537.6603 316.1375 538.129 315.575Q538.6134 315.0125 539.51965 314.27814Q540.9259 313.1219 541.4103 312.45Q541.9103 311.77814 541.9103 311.1844Q541.9103 310.5594 541.45715 310.1375Q541.004 309.7 540.2853 309.7Q539.51965 309.7 539.0665 310.15314Q538.6134 310.60626 538.5978 311.41876L537.51965 311.3094Q537.629 310.09064 538.3478 309.46564Q539.08215 308.825 540.3165 308.825Q541.5509 308.825 542.26965 309.5125Q542.9884 310.2 542.9884 311.21564Q542.9884 311.73126 542.76965 312.23126Q542.5665 312.71564 542.0665 313.27814Q541.58215 313.825 540.45715 314.77814Q539.504 315.575 539.2228 315.8719Q538.95715 316.15314 538.7853 316.4344L543.004 316.4344ZM545.0353 312.4344L545.0353 311.23126L546.2384 311.23126L546.2384 312.4344L545.0353 312.4344ZM545.0353 317.45L545.0353 316.2469L546.2384 316.2469L546.2384 317.45L545.0353 317.45ZM547.45715 313.21564Q547.45715 311.6844 547.76965 310.7625Q548.08215 309.825 548.6915 309.325Q549.3165 308.825 550.254 308.825Q550.9415 308.825 551.45715 309.10626Q551.9884 309.3875 552.33215 309.91876Q552.6759 310.4344 552.8634 311.1844Q553.0509 311.9344 553.0509 313.21564Q553.0509 314.73126 552.7384 315.65314Q552.4415 316.575 551.8165 317.09064Q551.20715 317.59064 550.254 317.59064Q549.01965 317.59064 548.3009 316.7Q547.45715 315.6375 547.45715 313.21564ZM548.5353 313.21564Q548.5353 315.325 549.0353 316.02814Q549.5353 316.73126 550.254 316.73126Q550.9884 316.73126 551.4728 316.02814Q551.9728 315.325 551.9728 313.21564Q551.9728 311.09064 551.4728 310.40314Q550.9884 309.7 550.2384 309.7Q549.51965 309.7 549.08215 310.3094Q548.5353 311.09064 548.5353 313.21564ZM554.45715 313.21564Q554.45715 311.6844 554.76965 310.7625Q555.08215 309.825 555.6915 309.325Q556.3165 308.825 557.254 308.825Q557.9415 308.825 558.45715 309.10626Q558.9884 309.3875 559.33215 309.91876Q559.6759 310.4344 559.8634 311.1844Q560.0509 311.9344 560.0509 313.21564Q560.0509 314.73126 559.7384 315.65314Q559.4415 316.575 558.8165 317.09064Q558.20715 317.59064 557.254 317.59064Q556.01965 317.59064 555.3009 316.7Q554.45715 315.6375 554.45715 313.21564ZM555.5353 313.21564Q555.5353 315.325 556.0353 316.02814Q556.5353 316.73126 557.254 316.73126Q557.9884 316.73126 558.4728 316.02814Q558.9728 315.325 558.9728 313.21564Q558.9728 311.09064 558.4728 310.40314Q557.9884 309.7 557.2384 309.7Q556.51965 309.7 556.08215 310.3094Q555.5353 311.09064 555.5353 313.21564Z" fill-rule="nonzero"/><path fill="#757575" d="M29.4875 23.2375L31.378124 23.2375L31.378124 31.503124Q31.378124 33.659374 30.89375 34.940624Q30.409374 36.20625 29.128124 37.003124Q27.8625 37.8 25.784374 37.8Q23.76875 37.8 22.4875 37.1125Q21.221874 36.409374 20.675 35.096874Q20.128124 33.784374 20.128124 31.503124L20.128124 23.2375L22.01875 23.2375L22.01875 31.4875Q22.01875 33.3625 22.3625 34.253124Q22.70625 35.128124 23.55 35.6125Q24.39375 36.08125 25.628124 36.08125Q27.70625 36.08125 28.596874 35.14375Q29.4875 34.190624 29.4875 31.4875L29.4875 23.2375ZM37.190624 37.55L31.64375 23.2375L33.690624 23.2375L37.409374 33.628124Q37.8625 34.878124 38.159374 35.971874Q38.4875 34.8 38.940624 33.628124L42.8 23.2375L44.7375 23.2375L39.128124 37.55L37.190624 37.55ZM52.409374 37.55L52.409374 23.2375L54.315624 23.2375L54.315624 37.55L52.409374 37.55ZM57.8625 37.55L57.8625 27.175L59.45625 27.175L59.45625 28.659374Q60.596874 26.940624 62.753124 26.940624Q63.690624 26.940624 64.47188 27.284374Q65.26875 27.6125 65.65938 28.159374Q66.05 28.70625 66.20625 29.45625Q66.3 29.95625 66.3 31.175L66.3 37.55L64.53438 37.55L64.53438 31.2375Q64.53438 30.159374 64.33125 29.628124Q64.12813 29.096874 63.596874 28.784374Q63.08125 28.471874 62.378124 28.471874Q61.253124 28.471874 60.440624 29.190624Q59.628124 29.89375 59.628124 31.878124L59.628124 37.55L57.8625 37.55ZM74.59688 37.55L74.59688 36.2375Q73.6125 37.784374 71.69063 37.784374Q70.45625 37.784374 69.40938 37.096874Q68.37813 36.409374 67.8 35.190624Q67.2375 33.971874 67.2375 32.378124Q67.2375 30.815624 67.75313 29.55Q68.26875 28.284374 69.3 27.6125Q70.34688 26.940624 71.6125 26.940624Q72.55 26.940624 73.28438 27.346874Q74.01875 27.7375 74.4875 28.3625L74.4875 23.2375L76.22188 23.2375L76.22188 37.55L74.59688 37.55ZM69.03438 32.378124Q69.03438 34.3625 69.87813 35.346874Q70.72188 36.33125 71.8625 36.33125Q73.01875 36.33125 73.81563 35.39375Q74.62813 34.45625 74.62813 32.51875Q74.62813 30.39375 73.8 29.39375Q72.9875 28.39375 71.78438 28.39375Q70.6125 28.39375 69.81563 29.3625Q69.03438 30.315624 69.03438 32.378124ZM85.97188 34.20625L87.78438 34.440624Q87.3625 36.01875 86.19063 36.909374Q85.03438 37.784374 83.22188 37.784374Q80.95625 37.784374 79.6125 36.39375Q78.28438 34.9875 78.28438 32.45625Q78.28438 29.83125 79.62813 28.39375Q80.97188 26.940624 83.12813 26.940624Q85.20625 26.940624 86.51875 28.3625Q87.84688 29.76875 87.84688 32.346874Q87.84688 32.503124 87.83125 32.815624L80.09688 32.815624Q80.19063 34.51875 81.06563 35.425Q81.94063 36.33125 83.2375 36.33125Q84.20625 36.33125 84.87813 35.83125Q85.56563 35.315624 85.97188 34.20625ZM80.19063 31.3625L85.9875 31.3625Q85.87813 30.065624 85.33125 29.409374Q84.4875 28.39375 83.14375 28.39375Q81.94063 28.39375 81.1125 29.20625Q80.28438 30.003124 80.19063 31.3625ZM88.69063 37.55L92.4875 32.159374L88.9875 27.175L91.175 27.175L92.76875 29.6125Q93.22188 30.3 93.4875 30.76875Q93.925 30.128124 94.28438 29.628124L96.03438 27.175L98.12813 27.175L94.55 32.065624L98.40938 37.55L96.25313 37.55L94.1125 34.33125L93.55 33.45625L90.83125 37.55L88.69063 37.55ZM105.19063 37.55L105.19063 23.2375L114.84688 23.2375L114.84688 24.925L107.08125 24.925L107.08125 29.3625L113.8 29.3625L113.8 31.05L107.08125 31.05L107.08125 37.55L105.19063 37.55ZM116.22188 32.3625Q116.22188 29.4875 117.81563 28.096874Q119.15938 26.940624 121.08125 26.940624Q123.22188 26.940624 124.56563 28.346874Q125.925 29.753124 125.925 32.221874Q125.925 34.221874 125.33125 35.378124Q124.7375 36.51875 123.58125 37.159374Q122.44063 37.784374 121.08125 37.784374Q118.89375 37.784374 117.55 36.39375Q116.22188 34.9875 116.22188 32.3625ZM118.01875 32.3625Q118.01875 34.3625 118.87813 35.346874Q119.75313 36.33125 121.08125 36.33125Q122.39375 36.33125 123.25313 35.346874Q124.12813 34.346874 124.12813 32.3Q124.12813 30.378124 123.25313 29.39375Q122.37813 28.39375 121.08125 28.39375Q119.75313 28.39375 118.87813 29.39375Q118.01875 30.378124 118.01875 32.3625ZM127.84688 37.55L127.84688 27.175L129.425 27.175L129.425 28.753124Q130.03438 27.64375 130.55 27.3Q131.06563 26.940624 131.675 26.940624Q132.56563 26.940624 133.4875 27.503124L132.87813 29.14375Q132.2375 28.753124 131.59688 28.753124Q131.01875 28.753124 130.55 29.1125Q130.09688 29.45625 129.89375 30.065624Q129.6125 31.003124 129.6125 32.1125L129.6125 37.55L127.84688 37.55ZM141.97188 34.20625L143.78438 34.440624Q143.3625 36.01875 142.19063 36.909374Q141.03438 37.784374 139.22188 37.784374Q136.95625 37.784374 135.6125 36.39375Q134.28438 34.9875 134.28438 32.45625Q134.28438 29.83125 135.62813 28.39375Q136.97188 26.940624 139.12813 26.940624Q141.20625 26.940624 142.51875 28.3625Q143.84688 29.76875 143.84688 32.346874Q143.84688 32.503124 143.83125 32.815624L136.09688 32.815624Q136.19063 34.51875 137.06563 35.425Q137.94063 36.33125 139.2375 36.33125Q140.20625 36.33125 140.87813 35.83125Q141.56563 35.315624 141.97188 34.20625ZM136.19063 31.3625L141.9875 31.3625Q141.87813 30.065624 141.33125 29.409374Q140.4875 28.39375 139.14375 28.39375Q137.94063 28.39375 137.1125 29.20625Q136.28438 30.003124 136.19063 31.3625ZM152.64375 33.753124L154.3625 33.971874Q154.08125 35.76875 152.90938 36.784374Q151.75313 37.784374 150.05 37.784374Q147.925 37.784374 146.62813 36.39375Q145.33125 35.003124 145.33125 32.409374Q145.33125 30.721874 145.87813 29.471874Q146.44063 28.20625 147.58125 27.58125Q148.72188 26.940624 150.06563 26.940624Q151.75313 26.940624 152.81563 27.8Q153.89375 28.659374 154.20625 30.221874L152.4875 30.4875Q152.25313 29.440624 151.62813 28.925Q151.00313 28.39375 150.12813 28.39375Q148.8 28.39375 147.97188 29.346874Q147.14375 30.3 147.14375 32.346874Q147.14375 34.440624 147.94063 35.39375Q148.7375 36.33125 150.03438 36.33125Q151.06563 36.33125 151.75313 35.70625Q152.45625 35.065624 152.64375 33.753124ZM162.64375 36.26875Q161.65938 37.096874 160.75313 37.440624Q159.84688 37.784374 158.81563 37.784374Q157.1125 37.784374 156.19063 36.95625Q155.26875 36.1125 155.26875 34.815624Q155.26875 34.05 155.6125 33.425Q155.97188 32.8 156.53438 32.425Q157.09688 32.034374 157.8 31.83125Q158.31563 31.70625 159.3625 31.565624Q161.4875 31.315624 162.4875 30.971874Q162.50313 30.6125 162.50313 30.503124Q162.50313 29.440624 162.00313 28.9875Q161.33125 28.39375 160.00313 28.39375Q158.75313 28.39375 158.15938 28.83125Q157.58125 29.26875 157.3 30.378124L155.58125 30.14375Q155.81563 29.034374 156.34688 28.3625Q156.87813 27.675 157.89375 27.315624Q158.90938 26.940624 160.25313 26.940624Q161.58125 26.940624 162.40938 27.253124Q163.2375 27.565624 163.62813 28.05Q164.01875 28.51875 164.175 29.2375Q164.26875 29.690624 164.26875 30.8625L164.26875 33.20625Q164.26875 35.659374 164.37813 36.315624Q164.4875 36.95625 164.83125 37.55L162.9875 37.55Q162.72188 37.003124 162.64375 36.26875ZM162.4875 32.346874Q161.53438 32.7375 159.6125 33.003124Q158.53438 33.159374 158.08125 33.3625Q157.64375 33.55 157.39375 33.925Q157.14375 34.3 157.14375 34.76875Q157.14375 35.471874 157.675 35.940624Q158.20625 36.409374 159.2375 36.409374Q160.25313 36.409374 161.03438 35.971874Q161.83125 35.51875 162.20625 34.753124Q162.4875 34.14375 162.4875 32.9875L162.4875 32.346874ZM166.15938 34.45625L167.90938 34.175Q168.05 35.221874 168.72188 35.784374Q169.39375 36.33125 170.59688 36.33125Q171.8 36.33125 172.37813 35.846874Q172.97188 35.346874 172.97188 34.690624Q172.97188 34.096874 172.45625 33.753124Q172.09688 33.51875 170.65938 33.159374Q168.72188 32.659374 167.97188 32.315624Q167.2375 31.95625 166.84688 31.33125Q166.45625 30.690624 166.45625 29.925Q166.45625 29.2375 166.76875 28.64375Q167.09688 28.05 167.64375 27.659374Q168.05 27.3625 168.75313 27.159374Q169.47188 26.940624 170.28438 26.940624Q171.50313 26.940624 172.425 27.3Q173.34688 27.64375 173.78438 28.253124Q174.22188 28.846874 174.39375 29.846874L172.675 30.08125Q172.55 29.284374 171.9875 28.846874Q171.425 28.39375 170.40938 28.39375Q169.19063 28.39375 168.675 28.8Q168.15938 29.190624 168.15938 29.721874Q168.15938 30.065624 168.37813 30.346874Q168.58125 30.628124 169.05 30.815624Q169.31563 30.909374 170.59688 31.253124Q172.47188 31.753124 173.20625 32.08125Q173.94063 32.39375 174.3625 33.003124Q174.78438 33.596874 174.78438 34.503124Q174.78438 35.378124 174.26875 36.159374Q173.75313 36.940624 172.78438 37.3625Q171.81563 37.784374 170.59688 37.784374Q168.58125 37.784374 167.51875 36.940624Q166.45625 36.096874 166.15938 34.45625ZM180.70625 35.971874L180.95625 37.534374Q180.22188 37.690624 179.62813 37.690624Q178.675 37.690624 178.14375 37.39375Q177.62813 37.08125 177.40938 36.596874Q177.19063 36.096874 177.19063 34.51875L177.19063 28.55L175.90938 28.55L175.90938 27.175L177.19063 27.175L177.19063 24.6125L178.94063 23.55L178.94063 27.175L180.70625 27.175L180.70625 28.55L178.94063 28.55L178.94063 34.6125Q178.94063 35.3625 179.03438 35.58125Q179.12813 35.784374 179.33125 35.925Q179.55 36.05 179.94063 36.05Q180.22188 36.05 180.70625 35.971874Z" fill-rule="nonzero"/></svg>